<svg width="241" height="557" viewBox="0 0 241 557" fill="none" xmlns="http://www.w3.org/2000/svg">
<ellipse cx="208.864" cy="413.063" rx="32.5262" ry="31.1074" transform="rotate(-90 208.864 413.063)" fill="#E826C8"/>
<ellipse cx="208.864" cy="301.723" rx="32.5262" ry="31.1074" transform="rotate(-90 208.864 301.723)" fill="#E826C8"/>
<ellipse cx="208.864" cy="190.384" rx="32.5262" ry="31.1074" transform="rotate(-90 208.864 190.384)" fill="#E826C8"/>
<ellipse cx="208.864" cy="79.0442" rx="32.5262" ry="31.1074" transform="rotate(-90 208.864 79.0442)" fill="#E826C8"/>
<ellipse cx="208.865" cy="524.402" rx="32.5262" ry="31.1074" transform="rotate(-90 208.865 524.402)" fill="#E826C8"/>
<ellipse cx="119.986" cy="413.063" rx="32.5262" ry="31.1074" transform="rotate(-90 119.986 413.063)" fill="#E826C8"/>
<ellipse cx="119.986" cy="301.723" rx="32.5262" ry="31.1074" transform="rotate(-90 119.986 301.723)" fill="#E826C8"/>
<ellipse cx="119.986" cy="190.384" rx="32.5262" ry="31.1074" transform="rotate(-90 119.986 190.384)" fill="#E826C8"/>
<ellipse cx="119.986" cy="79.0442" rx="32.5262" ry="31.1074" transform="rotate(-90 119.986 79.0442)" fill="#E826C8"/>
<ellipse cx="119.986" cy="524.402" rx="32.5262" ry="31.1074" transform="rotate(-90 119.986 524.402)" fill="#E826C8"/>
<ellipse cx="31.1074" cy="413.063" rx="32.5262" ry="31.1074" transform="rotate(-90 31.1074 413.063)" fill="#E826C8"/>
<ellipse cx="31.1077" cy="301.723" rx="32.5262" ry="31.1074" transform="rotate(-90 31.1077 301.723)" fill="#E826C8"/>
<ellipse cx="31.1074" cy="190.384" rx="32.5262" ry="31.1074" transform="rotate(-90 31.1074 190.384)" fill="#E826C8"/>
<ellipse cx="31.1077" cy="79.0442" rx="32.5262" ry="31.1074" transform="rotate(-90 31.1077 79.0442)" fill="#E826C8"/>
<ellipse cx="31.1077" cy="524.402" rx="32.5262" ry="31.1074" transform="rotate(-90 31.1077 524.402)" fill="#E826C8"/>
</svg>
