<svg width="1222" height="814" viewBox="0 0 1222 814" fill="none" xmlns="http://www.w3.org/2000/svg">
<path d="M859.402 243.112C976.064 153.784 925.048 78.9203 859.402 40.0007C793.757 1.08113 547.712 130.002 407.902 40.0007C268.093 -50.0009 0.5 40.0007 0.5 40.0007V771.567C0.5 771.567 407.902 867.042 466.031 771.567C524.16 676.092 403.893 678.525 466.031 598.861C528.169 519.198 1048.23 665.181 1147.54 598.861C1246.85 532.542 1245.45 483.778 1147.54 412.777C1049.63 341.776 615.863 455.953 556.732 412.777C497.601 369.601 516.643 272.91 556.732 243.112C596.821 213.314 750.521 279.428 859.402 243.112Z" fill="#F7A4B8"/>
<path d="M0 0.5H247V50H0V0.5Z" fill="#F7A4B8"/>
<rect x="0.5" y="737" width="318" height="77" fill="#F7A4B8"/>
</svg>
