<svg width="260" height="260" viewBox="0 0 260 260" fill="none" xmlns="http://www.w3.org/2000/svg">
<circle cx="130" cy="130" r="127.5" fill="#FFFCF9" stroke="#4A90E2" stroke-width="5"/>
<circle cx="130" cy="130" r="108.5" fill="#4A90E2" stroke="#4A90E2" stroke-width="3"/>
<path d="M99.271 201V183.545H110.828V186.588H102.961V190.747H110.061V193.79H102.961V201H99.271ZM114.139 201H110.184L116.21 183.545H120.966L126.983 201H123.028L118.656 187.534H118.52L114.139 201ZM113.892 194.139H123.233V197.02H113.892V194.139ZM134.851 194.932H137.988L139.564 196.96L141.115 198.767L144.039 202.432H140.596L138.584 199.96L137.553 198.494L134.851 194.932ZM144.303 192.273C144.303 194.176 143.942 195.795 143.221 197.131C142.505 198.466 141.527 199.486 140.289 200.19C139.056 200.889 137.669 201.239 136.13 201.239C134.578 201.239 133.186 200.886 131.953 200.182C130.721 199.477 129.746 198.457 129.03 197.122C128.314 195.787 127.956 194.17 127.956 192.273C127.956 190.369 128.314 188.75 129.03 187.415C129.746 186.08 130.721 185.062 131.953 184.364C133.186 183.659 134.578 183.307 136.13 183.307C137.669 183.307 139.056 183.659 140.289 184.364C141.527 185.062 142.505 186.08 143.221 187.415C143.942 188.75 144.303 190.369 144.303 192.273ZM140.561 192.273C140.561 191.04 140.377 190 140.007 189.153C139.644 188.307 139.13 187.665 138.465 187.227C137.8 186.79 137.022 186.571 136.13 186.571C135.238 186.571 134.459 186.79 133.794 187.227C133.13 187.665 132.613 188.307 132.243 189.153C131.88 190 131.698 191.04 131.698 192.273C131.698 193.506 131.88 194.545 132.243 195.392C132.613 196.239 133.13 196.881 133.794 197.318C134.459 197.756 135.238 197.974 136.13 197.974C137.022 197.974 137.8 197.756 138.465 197.318C139.13 196.881 139.644 196.239 140.007 195.392C140.377 194.545 140.561 193.506 140.561 192.273ZM156.505 188.565C156.437 187.878 156.145 187.344 155.627 186.963C155.11 186.582 154.409 186.392 153.522 186.392C152.92 186.392 152.412 186.477 151.997 186.648C151.582 186.812 151.264 187.043 151.042 187.338C150.826 187.634 150.718 187.969 150.718 188.344C150.707 188.656 150.772 188.929 150.914 189.162C151.062 189.395 151.264 189.597 151.52 189.767C151.775 189.932 152.071 190.077 152.406 190.202C152.741 190.321 153.099 190.423 153.48 190.509L155.048 190.884C155.809 191.054 156.508 191.281 157.145 191.565C157.781 191.849 158.332 192.199 158.798 192.614C159.264 193.028 159.625 193.517 159.88 194.08C160.142 194.642 160.275 195.287 160.281 196.014C160.275 197.082 160.002 198.009 159.463 198.793C158.929 199.571 158.156 200.176 157.145 200.608C156.139 201.034 154.926 201.247 153.505 201.247C152.096 201.247 150.869 201.031 149.824 200.599C148.784 200.168 147.971 199.528 147.386 198.682C146.806 197.83 146.502 196.776 146.474 195.52H150.045C150.085 196.105 150.252 196.594 150.548 196.986C150.849 197.372 151.25 197.665 151.75 197.864C152.255 198.057 152.826 198.153 153.463 198.153C154.088 198.153 154.63 198.062 155.091 197.881C155.556 197.699 155.917 197.446 156.173 197.122C156.429 196.798 156.556 196.426 156.556 196.006C156.556 195.614 156.44 195.284 156.207 195.017C155.98 194.75 155.645 194.523 155.201 194.335C154.764 194.148 154.227 193.977 153.591 193.824L151.69 193.347C150.218 192.989 149.056 192.429 148.204 191.668C147.352 190.906 146.929 189.881 146.934 188.591C146.929 187.534 147.21 186.611 147.778 185.821C148.352 185.031 149.139 184.415 150.139 183.972C151.139 183.528 152.275 183.307 153.548 183.307C154.843 183.307 155.974 183.528 156.94 183.972C157.912 184.415 158.667 185.031 159.207 185.821C159.747 186.611 160.025 187.526 160.042 188.565H156.505Z" fill="white"/>
<g clip-path="url(#clip0_139_52)">
<path d="M190.01 158.546L168.063 136.423C168.062 136.422 168.062 136.422 168.061 136.421C168.06 136.421 168.06 136.421 168.06 136.42L160.214 128.512C157.564 125.84 153.251 125.839 150.6 128.512L149.638 129.481L146.325 126.141C152.816 118.296 156.727 108.211 156.727 97.2207C156.726 72.286 136.601 52 111.864 52C87.1272 52 67.0027 72.286 67.0027 97.2207C67.0027 122.155 87.1272 142.441 111.864 142.441C122.767 142.441 132.773 138.499 140.555 131.956L143.869 135.296L142.907 136.265C140.257 138.937 140.257 143.285 142.907 145.957L172.703 175.991C175.359 178.669 179.661 178.67 182.318 175.991L190.01 168.238C192.661 165.566 192.661 161.218 190.01 158.546ZM111.864 134.218C91.626 134.218 75.1609 117.621 75.1609 97.2207C75.1609 76.8205 91.626 60.2237 111.864 60.2237C132.103 60.2237 148.568 76.8205 148.568 97.2207C148.568 117.621 132.103 134.218 111.864 134.218ZM149.638 141.111L155.407 135.296L159.407 139.329L153.639 145.144L149.638 141.111ZM177.511 169.207L159.407 150.959L165.176 145.144L183.279 163.392L177.511 169.207Z" fill="white"/>
<path d="M111.863 68.4476C109.61 68.4476 107.784 70.2887 107.784 72.5596C107.784 74.8306 109.61 76.6716 111.863 76.6716C123.105 76.6716 132.25 85.8895 132.25 97.2204C132.25 99.4914 134.077 101.332 136.33 101.332C138.583 101.332 140.409 99.4914 140.409 97.2204C140.409 81.355 127.603 68.4476 111.863 68.4476Z" fill="white"/>
</g>
<defs>
<clipPath id="clip0_139_52">
<rect width="125" height="126" fill="white" transform="translate(67 52)"/>
</clipPath>
</defs>
</svg>
