<svg width="260" height="260" viewBox="0 0 260 260" fill="none" xmlns="http://www.w3.org/2000/svg">
<circle cx="130" cy="130" r="127.5" fill="#FFFCF9" stroke="#4A90E2" stroke-width="5"/>
<circle cx="130" cy="130" r="108.5" fill="#4A90E2" stroke="#4A90E2" stroke-width="3"/>
<path d="M75.8398 192.942H71.4922V190.2H75.8398C76.5117 190.2 77.0586 190.091 77.4805 189.872C77.9023 189.646 78.2109 189.333 78.4062 188.935C78.6016 188.536 78.6992 188.087 78.6992 187.587C78.6992 187.079 78.6016 186.606 78.4062 186.169C78.2109 185.731 77.9023 185.38 77.4805 185.114C77.0586 184.849 76.5117 184.716 75.8398 184.716H72.7109V199.024H69.1953V181.962H75.8398C77.1758 181.962 78.3203 182.204 79.2734 182.688C80.2344 183.165 80.9688 183.825 81.4766 184.669C81.9844 185.513 82.2383 186.478 82.2383 187.563C82.2383 188.665 81.9844 189.618 81.4766 190.423C80.9688 191.228 80.2344 191.849 79.2734 192.286C78.3203 192.724 77.1758 192.942 75.8398 192.942ZM84.6641 181.962H91.0273C92.332 181.962 93.4531 182.157 94.3906 182.548C95.3359 182.938 96.0625 183.517 96.5703 184.282C97.0781 185.048 97.332 185.989 97.332 187.106C97.332 188.021 97.1758 188.806 96.8633 189.462C96.5586 190.11 96.125 190.653 95.5625 191.091C95.0078 191.521 94.3555 191.864 93.6055 192.122L92.4922 192.708H86.9609L86.9375 189.966H91.0508C91.668 189.966 92.1797 189.856 92.5859 189.638C92.9922 189.419 93.2969 189.114 93.5 188.724C93.7109 188.333 93.8164 187.88 93.8164 187.364C93.8164 186.817 93.7148 186.345 93.5117 185.946C93.3086 185.548 93 185.243 92.5859 185.032C92.1719 184.821 91.6523 184.716 91.0273 184.716H88.1797V199.024H84.6641V181.962ZM94.2031 199.024L90.3125 191.419L94.0273 191.396L97.9648 198.86V199.024H94.2031ZM114.055 190.095V190.903C114.055 192.2 113.879 193.364 113.527 194.396C113.176 195.427 112.68 196.306 112.039 197.032C111.398 197.751 110.633 198.302 109.742 198.685C108.859 199.067 107.879 199.259 106.801 199.259C105.73 199.259 104.75 199.067 103.859 198.685C102.977 198.302 102.211 197.751 101.562 197.032C100.914 196.306 100.41 195.427 100.051 194.396C99.6992 193.364 99.5234 192.2 99.5234 190.903V190.095C99.5234 188.79 99.6992 187.626 100.051 186.603C100.402 185.571 100.898 184.692 101.539 183.966C102.188 183.239 102.953 182.685 103.836 182.302C104.727 181.919 105.707 181.728 106.777 181.728C107.855 181.728 108.836 181.919 109.719 182.302C110.609 182.685 111.375 183.239 112.016 183.966C112.664 184.692 113.164 185.571 113.516 186.603C113.875 187.626 114.055 188.79 114.055 190.095ZM110.504 190.903V190.071C110.504 189.165 110.422 188.368 110.258 187.681C110.094 186.993 109.852 186.415 109.531 185.946C109.211 185.478 108.82 185.126 108.359 184.892C107.898 184.649 107.371 184.528 106.777 184.528C106.184 184.528 105.656 184.649 105.195 184.892C104.742 185.126 104.355 185.478 104.035 185.946C103.723 186.415 103.484 186.993 103.32 187.681C103.156 188.368 103.074 189.165 103.074 190.071V190.903C103.074 191.802 103.156 192.599 103.32 193.294C103.484 193.981 103.727 194.563 104.047 195.04C104.367 195.509 104.758 195.864 105.219 196.106C105.68 196.349 106.207 196.47 106.801 196.47C107.395 196.47 107.922 196.349 108.383 196.106C108.844 195.864 109.23 195.509 109.543 195.04C109.855 194.563 110.094 193.981 110.258 193.294C110.422 192.599 110.504 191.802 110.504 190.903ZM121.824 199.024H118.109L118.133 196.282H121.824C122.746 196.282 123.523 196.075 124.156 195.661C124.789 195.239 125.266 194.626 125.586 193.821C125.914 193.017 126.078 192.044 126.078 190.903V190.071C126.078 189.196 125.984 188.427 125.797 187.763C125.617 187.099 125.348 186.54 124.988 186.087C124.629 185.634 124.188 185.294 123.664 185.067C123.141 184.833 122.539 184.716 121.859 184.716H118.039V181.962H121.859C123 181.962 124.043 182.157 124.988 182.548C125.941 182.931 126.766 183.481 127.461 184.2C128.156 184.919 128.691 185.778 129.066 186.778C129.449 187.771 129.641 188.876 129.641 190.095V190.903C129.641 192.114 129.449 193.22 129.066 194.22C128.691 195.22 128.156 196.079 127.461 196.798C126.773 197.509 125.949 198.06 124.988 198.45C124.035 198.833 122.98 199.024 121.824 199.024ZM120.102 181.962V199.024H116.586V181.962H120.102ZM141.617 181.962H145.121V193.235C145.121 194.548 144.84 195.653 144.277 196.552C143.723 197.45 142.953 198.126 141.969 198.579C140.992 199.032 139.867 199.259 138.594 199.259C137.32 199.259 136.188 199.032 135.195 198.579C134.211 198.126 133.438 197.45 132.875 196.552C132.32 195.653 132.043 194.548 132.043 193.235V181.962H135.559V193.235C135.559 194.001 135.68 194.626 135.922 195.11C136.164 195.595 136.512 195.95 136.965 196.177C137.426 196.403 137.969 196.517 138.594 196.517C139.234 196.517 139.777 196.403 140.223 196.177C140.676 195.95 141.02 195.595 141.254 195.11C141.496 194.626 141.617 194.001 141.617 193.235V181.962ZM157.906 193.364H161.41C161.34 194.513 161.023 195.532 160.461 196.423C159.906 197.313 159.129 198.009 158.129 198.509C157.137 199.009 155.941 199.259 154.543 199.259C153.449 199.259 152.469 199.071 151.602 198.696C150.734 198.313 149.992 197.767 149.375 197.056C148.766 196.345 148.301 195.485 147.98 194.478C147.66 193.47 147.5 192.341 147.5 191.091V189.907C147.5 188.657 147.664 187.528 147.992 186.521C148.328 185.505 148.805 184.642 149.422 183.931C150.047 183.22 150.793 182.673 151.66 182.29C152.527 181.907 153.496 181.716 154.566 181.716C155.988 181.716 157.188 181.974 158.164 182.489C159.148 183.005 159.91 183.716 160.449 184.622C160.996 185.528 161.324 186.56 161.434 187.716H157.918C157.879 187.028 157.742 186.446 157.508 185.97C157.273 185.485 156.918 185.122 156.441 184.88C155.973 184.63 155.348 184.505 154.566 184.505C153.98 184.505 153.469 184.614 153.031 184.833C152.594 185.052 152.227 185.384 151.93 185.829C151.633 186.274 151.41 186.837 151.262 187.517C151.121 188.188 151.051 188.978 151.051 189.884V191.091C151.051 191.974 151.117 192.751 151.25 193.423C151.383 194.087 151.586 194.649 151.859 195.11C152.141 195.563 152.5 195.907 152.938 196.142C153.383 196.368 153.918 196.481 154.543 196.481C155.277 196.481 155.883 196.364 156.359 196.13C156.836 195.896 157.199 195.548 157.449 195.087C157.707 194.626 157.859 194.052 157.906 193.364ZM170.996 181.962V199.024H167.492V181.962H170.996ZM176.246 181.962V184.716H162.324V181.962H176.246ZM186.945 194.56C186.945 194.255 186.898 193.981 186.805 193.739C186.719 193.489 186.555 193.263 186.312 193.06C186.07 192.849 185.73 192.642 185.293 192.438C184.855 192.235 184.289 192.024 183.594 191.806C182.82 191.556 182.086 191.274 181.391 190.962C180.703 190.649 180.094 190.286 179.562 189.872C179.039 189.45 178.625 188.962 178.32 188.407C178.023 187.853 177.875 187.208 177.875 186.474C177.875 185.763 178.031 185.118 178.344 184.54C178.656 183.954 179.094 183.454 179.656 183.04C180.219 182.618 180.883 182.294 181.648 182.067C182.422 181.841 183.27 181.728 184.191 181.728C185.449 181.728 186.547 181.954 187.484 182.407C188.422 182.86 189.148 183.481 189.664 184.271C190.188 185.06 190.449 185.962 190.449 186.978H186.957C186.957 186.478 186.852 186.04 186.641 185.665C186.438 185.282 186.125 184.981 185.703 184.763C185.289 184.544 184.766 184.435 184.133 184.435C183.523 184.435 183.016 184.528 182.609 184.716C182.203 184.896 181.898 185.142 181.695 185.454C181.492 185.759 181.391 186.103 181.391 186.485C181.391 186.774 181.461 187.036 181.602 187.271C181.75 187.505 181.969 187.724 182.258 187.927C182.547 188.13 182.902 188.321 183.324 188.501C183.746 188.681 184.234 188.856 184.789 189.028C185.719 189.31 186.535 189.626 187.238 189.978C187.949 190.329 188.543 190.724 189.02 191.161C189.496 191.599 189.855 192.095 190.098 192.649C190.34 193.204 190.461 193.833 190.461 194.536C190.461 195.278 190.316 195.942 190.027 196.528C189.738 197.114 189.32 197.61 188.773 198.017C188.227 198.423 187.574 198.731 186.816 198.942C186.059 199.153 185.211 199.259 184.273 199.259C183.43 199.259 182.598 199.149 181.777 198.931C180.957 198.704 180.211 198.364 179.539 197.911C178.875 197.458 178.344 196.88 177.945 196.177C177.547 195.474 177.348 194.642 177.348 193.681H180.875C180.875 194.212 180.957 194.661 181.121 195.028C181.285 195.396 181.516 195.692 181.812 195.919C182.117 196.146 182.477 196.31 182.891 196.411C183.312 196.513 183.773 196.563 184.273 196.563C184.883 196.563 185.383 196.478 185.773 196.306C186.172 196.134 186.465 195.896 186.652 195.591C186.848 195.286 186.945 194.942 186.945 194.56Z" fill="white"/>
<g clip-path="url(#clip0_286_2)">
<mask id="mask0_286_2" style="mask-type:luminance" maskUnits="userSpaceOnUse" x="57" y="36" width="145" height="134">
<path d="M57.8719 36.512H201.128V169.616H57.8719V36.512Z" fill="white"/>
</mask>
<g mask="url(#mask0_286_2)">
<path d="M194.858 122.5C190.915 144.466 165.747 159.107 129.847 159.107C93.9459 159.107 68.7818 144.466 64.8423 122.5C63.9111 117.319 65.4304 94.0577 68.8158 89.5532C78.4629 76.7227 81.9124 125.859 129.847 125.859C182.052 125.859 181.272 76.7227 190.915 89.5532C194.304 94.0577 195.786 117.319 194.858 122.5Z" fill="white"/>
<path d="M129.848 107.86C117.883 107.86 108.179 105.401 108.179 102.367C108.179 99.3339 117.883 96.8785 129.848 96.8785C141.81 96.8785 151.518 99.3339 151.518 102.367C151.518 105.401 141.81 107.86 129.848 107.86ZM129.848 61.0105C94.6714 61.0105 66.1559 77.067 66.1559 96.8785C66.1559 116.686 94.6714 132.743 129.848 132.743C165.021 132.743 193.541 116.686 193.541 96.8785C193.541 77.067 165.021 61.0105 129.848 61.0105Z" fill="#DEF4F8"/>
<path d="M68.1251 91.2338C65.6634 94.8941 64.6568 110.478 69.9309 117.774C77.9759 128.909 81.9116 123.263 87.8228 124.944C96.6255 127.445 97.2777 133.908 104.241 137.144C112.12 140.804 116.7 139.74 127.878 137.144C143.64 133.484 153.653 140.955 163.334 137.144C171.273 134.016 175.816 122.653 180.246 121.284C194.3 116.93 197.267 96.3302 186.809 87.8781C183.529 94.2846 167.443 117.315 157.102 118.383C146.754 119.452 115.731 121.886 102.601 115.637C89.4665 109.385 76.1701 101.605 74.5264 99.4722C72.8865 97.3355 68.1251 91.2338 68.1251 91.2338Z" fill="#DEF4F8"/>
<path d="M129.848 88.6406C115.703 88.6406 104.239 92.942 104.239 98.2486C104.239 100.315 105.984 102.217 108.933 103.783C108.458 103.328 108.179 102.858 108.179 102.368C108.179 99.3345 117.882 96.8791 129.848 96.8791C141.81 96.8791 151.517 99.3345 151.517 102.368C151.517 102.858 151.238 103.328 150.76 103.783C153.711 102.217 155.457 100.315 155.457 98.2486C155.457 92.942 143.989 88.6406 129.848 88.6406Z" fill="white"/>
<path d="M78.3045 103.591C76.8908 103.591 75.5261 102.88 74.8173 101.64C73.7995 99.8533 74.5346 97.636 76.461 96.6938L85.1619 92.4205C87.0808 91.4677 89.4671 92.1543 90.485 93.9442C91.5029 95.7306 90.7677 97.9478 88.8413 98.89L80.1404 103.163C79.5561 103.454 78.9265 103.591 78.3045 103.591Z" fill="white"/>
<path d="M123.118 130.891C121.572 130.891 120.106 130.043 119.476 128.628L116.687 122.372C115.853 120.505 116.811 118.365 118.82 117.591C120.834 116.82 123.133 117.703 123.966 119.577L126.756 125.833C127.589 127.7 126.635 129.84 124.622 130.614C124.132 130.803 123.619 130.891 123.118 130.891Z" fill="white"/>
<path d="M167.77 116.247C167.088 116.247 166.398 116.083 165.772 115.736C163.898 114.713 163.276 112.464 164.385 110.727L168.648 104.016C169.753 102.278 172.184 101.7 174.043 102.727C175.917 103.756 176.539 105.998 175.43 107.739L171.163 114.447C170.431 115.603 169.116 116.247 167.77 116.247Z" fill="#55ACEE"/>
<path d="M174.334 89.053C172.223 89.053 170.477 87.3682 170.402 85.3891C170.327 83.3715 172.027 81.6097 174.198 81.5361L178.79 81.354C181.003 81.3294 182.79 82.8496 182.865 84.8707C182.941 86.8883 181.241 88.7062 179.069 88.7798L174.477 89.053H174.334Z" fill="white"/>
<path d="M136.256 74.6094C134.582 74.6094 133.032 73.6111 132.497 72.0524C131.845 70.1224 132.995 68.0663 135.068 67.4568L138.182 66.5426C140.274 65.9296 142.468 67.0014 143.124 68.9279C143.784 70.8579 142.631 72.9141 140.561 73.5235L137.443 74.4377C137.047 74.5533 136.648 74.6094 136.256 74.6094Z" fill="white"/>
<path d="M114.412 80.5562C113.82 80.5562 113.22 80.4301 112.655 80.1709L109.699 78.7978C107.754 77.8941 106.962 75.6944 107.935 73.8869C108.908 72.0795 111.275 71.344 113.224 72.2477L116.176 73.6207C118.121 74.5244 118.913 76.7207 117.94 78.5316C117.25 79.8136 115.859 80.5562 114.412 80.5562Z" fill="#88C9F9"/>
<path d="M148.725 127.07C148.137 127.07 147.538 126.947 146.972 126.688L144.017 125.319C142.068 124.415 141.276 122.219 142.245 120.411C143.214 118.597 145.577 117.865 147.53 118.765L150.486 120.135C152.431 121.035 153.223 123.231 152.258 125.042C151.568 126.327 150.173 127.07 148.725 127.07Z" fill="#88C9F9"/>
<path d="M97.1781 118.994C96.6579 118.994 96.1338 118.903 95.6249 118.697C93.6269 117.901 92.7032 115.747 93.559 113.891L95.0368 110.689C95.8963 108.836 98.2148 107.961 100.213 108.77C102.211 109.568 103.138 111.719 102.279 113.576L100.801 116.777C100.16 118.164 98.7049 118.994 97.1781 118.994Z" fill="#55ACEE"/>
<path d="M155.956 84.3701C154.436 84.3701 152.989 83.5505 152.344 82.1774C151.473 80.3245 152.382 78.1668 154.372 77.3541L156.996 76.2858C158.998 75.4732 161.316 76.3208 162.184 78.1738C163.058 80.0267 162.15 82.1844 160.155 82.9935L157.531 84.0619C157.015 84.272 156.483 84.3701 155.956 84.3701Z" fill="#55ACEE"/>
<path d="M91.9319 84.218C91.6378 84.218 91.34 84.1865 91.046 84.1234L88.9122 83.6681C86.7898 83.2127 85.4665 81.2477 85.9566 79.2792C86.4429 77.3071 88.5616 76.0812 90.6765 76.533L92.8103 76.9884C94.9327 77.4437 96.256 79.4088 95.7696 81.3773C95.3474 83.0726 93.7264 84.218 91.9319 84.218Z" fill="#55ACEE"/>
</g>
</g>
<defs>
<clipPath id="clip0_286_2">
<rect width="141" height="142.024" fill="white" transform="translate(59 32)"/>
</clipPath>
</defs>
</svg>
