<svg width="437" height="72" viewBox="0 0 437 72" fill="none" xmlns="http://www.w3.org/2000/svg">
<mask id="path-1-outside-1_17_69" maskUnits="userSpaceOnUse" x="0" y="0" width="437" height="72" fill="black">
<rect fill="white" width="437" height="72"/>
<path d="M24.2676 41.864C21.4516 40.904 18.8916 39.944 16.5876 38.984C14.2836 37.96 12.2996 36.744 10.6356 35.336C8.97163 33.928 7.65963 32.264 6.69963 30.344C5.80363 28.36 5.35563 25.96 5.35563 23.144C5.35563 17.704 7.43563 13.352 11.5956 10.088C15.8196 6.824 21.7076 5.192 29.2596 5.192C32.0116 5.192 34.5716 5.384 36.9396 5.768C39.3076 6.152 41.3236 6.76 42.9876 7.592C44.7156 8.36 46.0596 9.384 47.0196 10.664C47.9796 11.88 48.4596 13.32 48.4596 14.984C48.4596 16.648 48.0756 18.088 47.3076 19.304C46.5396 20.456 45.6116 21.448 44.5236 22.28C43.1156 21.384 41.2276 20.616 38.8596 19.976C36.4916 19.272 33.8996 18.92 31.0836 18.92C28.2036 18.92 26.0916 19.336 24.7476 20.168C23.4036 20.936 22.7316 21.928 22.7316 23.144C22.7316 24.104 23.1476 24.904 23.9796 25.544C24.8116 26.12 26.0596 26.664 27.7236 27.176L32.8116 28.808C38.8276 30.728 43.4356 33.192 46.6356 36.2C49.8996 39.144 51.5316 43.176 51.5316 48.296C51.5316 53.736 49.3876 58.152 45.0996 61.544C40.8116 64.872 34.5076 66.536 26.1876 66.536C23.2436 66.536 20.4916 66.28 17.9316 65.768C15.4356 65.32 13.2276 64.648 11.3076 63.752C9.45163 62.792 7.97963 61.64 6.89163 60.296C5.86763 58.888 5.35563 57.288 5.35563 55.496C5.35563 53.64 5.89963 52.072 6.98763 50.792C8.07563 49.448 9.25963 48.424 10.5396 47.72C12.3316 49.128 14.5076 50.344 17.0676 51.368C19.6916 52.392 22.5396 52.904 25.6116 52.904C28.7476 52.904 30.9556 52.424 32.2356 51.464C33.5156 50.504 34.1556 49.384 34.1556 48.104C34.1556 46.824 33.6436 45.864 32.6196 45.224C31.5956 44.52 30.1556 43.848 28.2996 43.208L24.2676 41.864ZM82.4226 33.8C85.1106 33.8 87.1586 33.192 88.5666 31.976C90.0386 30.696 90.7746 28.776 90.7746 26.216C90.7746 23.784 90.0066 21.928 88.4706 20.648C86.9986 19.304 84.8226 18.632 81.9426 18.632C80.9186 18.632 80.0546 18.664 79.3506 18.728C78.7106 18.728 78.0386 18.792 77.3346 18.92V33.8H82.4226ZM77.4306 64.616C76.7266 64.808 75.6066 65 74.0706 65.192C72.5986 65.384 71.1266 65.48 69.6546 65.48C68.1826 65.48 66.8706 65.352 65.7186 65.096C64.6306 64.904 63.7026 64.52 62.9346 63.944C62.1666 63.368 61.5906 62.568 61.2066 61.544C60.8226 60.52 60.6306 59.176 60.6306 57.512V12.296C60.6306 10.952 60.9826 9.928 61.6866 9.224C62.4546 8.456 63.4786 7.848 64.7586 7.4C66.9346 6.632 69.3986 6.088 72.1506 5.768C74.9666 5.384 77.7826 5.192 80.5986 5.192C89.4306 5.192 96.1826 7.08 100.855 10.856C105.527 14.632 107.863 19.752 107.863 26.216C107.863 29.352 107.351 32.2 106.327 34.76C105.367 37.256 103.895 39.432 101.911 41.288C99.9906 43.08 97.5266 44.488 94.5186 45.512C91.5746 46.472 88.1506 46.952 84.2466 46.952H77.4306V64.616ZM133.116 46.184V64.616C132.412 64.808 131.292 65 129.756 65.192C128.284 65.384 126.812 65.48 125.34 65.48C123.868 65.48 122.556 65.352 121.404 65.096C120.316 64.904 119.388 64.52 118.62 63.944C117.916 63.368 117.372 62.568 116.988 61.544C116.604 60.52 116.412 59.176 116.412 57.512V12.296C116.412 10.952 116.764 9.928 117.468 9.224C118.236 8.456 119.26 7.848 120.54 7.4C122.716 6.632 125.244 6.088 128.124 5.768C131.004 5.384 134.076 5.192 137.34 5.192C146.172 5.192 152.828 7.048 157.308 10.76C161.788 14.472 164.028 19.496 164.028 25.832C164.028 29.8 163.004 33.192 160.956 36.008C158.908 38.824 156.476 41 153.66 42.536C155.964 45.672 158.236 48.616 160.476 51.368C162.716 54.12 164.476 56.616 165.756 58.856C165.116 61.096 163.932 62.824 162.204 64.04C160.54 65.192 158.652 65.768 156.54 65.768C155.132 65.768 153.916 65.608 152.892 65.288C151.868 64.968 150.972 64.52 150.204 63.944C149.436 63.368 148.732 62.664 148.092 61.832C147.452 61 146.844 60.104 146.268 59.144L138.204 46.184H133.116ZM139.164 33.416C141.596 33.416 143.516 32.808 144.924 31.592C146.332 30.312 147.036 28.456 147.036 26.024C147.036 23.592 146.236 21.768 144.636 20.552C143.1 19.272 140.636 18.632 137.244 18.632C136.284 18.632 135.516 18.664 134.94 18.728C134.364 18.792 133.724 18.888 133.02 19.016V33.416H139.164ZM191.712 64.616C191.008 64.808 189.888 65 188.352 65.192C186.88 65.384 185.408 65.48 183.936 65.48C182.464 65.48 181.152 65.352 180 65.096C178.912 64.904 177.984 64.52 177.216 63.944C176.448 63.368 175.872 62.568 175.488 61.544C175.104 60.52 174.912 59.176 174.912 57.512V6.824C175.616 6.696 176.736 6.536 178.272 6.344C179.808 6.088 181.28 5.96 182.688 5.96C184.16 5.96 185.44 6.088 186.528 6.344C187.68 6.536 188.64 6.92 189.408 7.496C190.176 8.072 190.752 8.872 191.136 9.896C191.52 10.92 191.712 12.264 191.712 13.928V64.616ZM256.866 62.984C255.97 63.88 254.658 64.552 252.93 65C251.266 65.512 249.25 65.768 246.882 65.768C244.514 65.768 242.274 65.416 240.162 64.712C238.05 64.008 236.322 62.312 234.978 59.624L225.474 40.232C224.514 38.248 223.65 36.392 222.882 34.664C222.114 32.872 221.282 30.824 220.386 28.52L219.81 28.616C220.066 32.072 220.194 35.592 220.194 39.176C220.258 42.76 220.29 46.28 220.29 49.736V64.616C219.586 64.808 218.498 65 217.026 65.192C215.618 65.384 214.21 65.48 212.802 65.48C211.394 65.48 210.146 65.384 209.058 65.192C207.97 65 207.074 64.616 206.37 64.04C205.666 63.464 205.122 62.696 204.738 61.736C204.354 60.712 204.162 59.4 204.162 57.8V9.8C205.058 8.52 206.434 7.56 208.29 6.92C210.146 6.28 212.13 5.96 214.242 5.96C216.61 5.96 218.85 6.344 220.962 7.112C223.138 7.816 224.866 9.48 226.146 12.104L235.746 31.496C236.706 33.48 237.57 35.368 238.338 37.16C239.106 38.888 239.938 40.904 240.834 43.208L241.314 43.112C241.058 39.656 240.898 36.2 240.834 32.744C240.77 29.288 240.738 25.832 240.738 22.376V6.824C241.442 6.632 242.498 6.44 243.906 6.248C245.378 6.056 246.818 5.96 248.226 5.96C251.042 5.96 253.186 6.472 254.658 7.496C256.13 8.456 256.866 10.504 256.866 13.64V62.984ZM286.214 43.4V64.616C285.51 64.808 284.39 65 282.854 65.192C281.318 65.384 279.814 65.48 278.342 65.48C276.87 65.48 275.558 65.352 274.406 65.096C273.318 64.904 272.39 64.52 271.622 63.944C270.854 63.368 270.278 62.568 269.894 61.544C269.51 60.52 269.318 59.176 269.318 57.512V6.824C270.022 6.696 271.142 6.536 272.678 6.344C274.214 6.088 275.686 5.96 277.094 5.96C278.566 5.96 279.846 6.088 280.934 6.344C282.086 6.536 283.046 6.92 283.814 7.496C284.582 8.072 285.158 8.872 285.542 9.896C285.926 10.92 286.118 12.264 286.118 13.928V29.192L306.086 6.248C310.438 6.248 313.542 7.08 315.398 8.744C317.318 10.344 318.278 12.264 318.278 14.504C318.278 16.168 317.862 17.736 317.03 19.208C316.198 20.68 314.854 22.344 312.998 24.2L300.998 36.2C302.598 37.992 304.262 39.848 305.99 41.768C307.782 43.688 309.51 45.576 311.174 47.432C312.902 49.224 314.534 50.952 316.07 52.616C317.67 54.28 319.046 55.72 320.198 56.936C320.198 58.344 319.942 59.592 319.43 60.68C318.918 61.768 318.214 62.696 317.318 63.464C316.486 64.232 315.526 64.808 314.438 65.192C313.35 65.576 312.198 65.768 310.982 65.768C308.358 65.768 306.214 65.128 304.55 63.848C302.886 62.504 301.286 60.936 299.75 59.144L286.214 43.4ZM337.309 65.288C334.557 65.288 332.381 64.488 330.781 62.888C329.181 61.288 328.381 59.112 328.381 56.36V6.72799C329.085 6.6 330.205 6.44 331.741 6.248C333.277 5.99199 334.749 5.86399 336.157 5.86399C337.629 5.86399 338.909 5.99199 339.997 6.248C341.149 6.44 342.109 6.824 342.877 7.4C343.645 7.976 344.221 8.776 344.605 9.8C344.989 10.824 345.181 12.168 345.181 13.832V51.752H367.165C367.613 52.456 368.029 53.416 368.413 54.632C368.797 55.784 368.989 57 368.989 58.28C368.989 60.84 368.445 62.664 367.357 63.752C366.269 64.776 364.829 65.288 363.037 65.288H337.309ZM390.921 8.552C392.009 7.912 393.641 7.304 395.817 6.72799C398.057 6.15199 400.297 5.86399 402.537 5.86399C405.737 5.86399 408.553 6.344 410.985 7.304C413.481 8.2 415.081 9.64 415.785 11.624C416.937 14.952 418.185 18.824 419.529 23.24C420.873 27.656 422.217 32.232 423.561 36.968C424.905 41.64 426.217 46.28 427.497 50.888C428.777 55.432 429.897 59.464 430.857 62.984C430.089 63.88 428.937 64.584 427.401 65.096C425.865 65.672 424.041 65.96 421.929 65.96C420.393 65.96 419.081 65.832 417.993 65.576C416.969 65.32 416.105 64.936 415.401 64.424C414.761 63.912 414.217 63.24 413.769 62.408C413.385 61.576 413.033 60.616 412.713 59.528L410.985 52.904H393.609C393.097 54.824 392.585 56.808 392.073 58.856C391.561 60.904 391.049 62.888 390.537 64.808C389.641 65.128 388.681 65.384 387.657 65.576C386.697 65.832 385.513 65.96 384.105 65.96C380.841 65.96 378.409 65.416 376.809 64.328C375.273 63.176 374.505 61.608 374.505 59.624C374.505 58.728 374.633 57.832 374.889 56.936C375.145 56.04 375.433 54.984 375.753 53.768C376.201 52.04 376.809 49.896 377.577 47.336C378.409 44.776 379.305 42.024 380.265 39.08C381.225 36.072 382.249 33 383.337 29.864C384.425 26.728 385.449 23.784 386.409 21.032C387.369 18.216 388.233 15.72 389.001 13.544C389.833 11.368 390.473 9.704 390.921 8.552ZM402.441 20.936C401.545 23.624 400.521 26.632 399.369 29.96C398.281 33.224 397.289 36.552 396.393 39.944H408.297C407.401 36.488 406.473 33.128 405.513 29.864C404.617 26.536 403.785 23.56 403.017 20.936H402.441Z"/>
</mask>
<path d="M24.2676 41.864C21.4516 40.904 18.8916 39.944 16.5876 38.984C14.2836 37.96 12.2996 36.744 10.6356 35.336C8.97163 33.928 7.65963 32.264 6.69963 30.344C5.80363 28.36 5.35563 25.96 5.35563 23.144C5.35563 17.704 7.43563 13.352 11.5956 10.088C15.8196 6.824 21.7076 5.192 29.2596 5.192C32.0116 5.192 34.5716 5.384 36.9396 5.768C39.3076 6.152 41.3236 6.76 42.9876 7.592C44.7156 8.36 46.0596 9.384 47.0196 10.664C47.9796 11.88 48.4596 13.32 48.4596 14.984C48.4596 16.648 48.0756 18.088 47.3076 19.304C46.5396 20.456 45.6116 21.448 44.5236 22.28C43.1156 21.384 41.2276 20.616 38.8596 19.976C36.4916 19.272 33.8996 18.92 31.0836 18.92C28.2036 18.92 26.0916 19.336 24.7476 20.168C23.4036 20.936 22.7316 21.928 22.7316 23.144C22.7316 24.104 23.1476 24.904 23.9796 25.544C24.8116 26.12 26.0596 26.664 27.7236 27.176L32.8116 28.808C38.8276 30.728 43.4356 33.192 46.6356 36.2C49.8996 39.144 51.5316 43.176 51.5316 48.296C51.5316 53.736 49.3876 58.152 45.0996 61.544C40.8116 64.872 34.5076 66.536 26.1876 66.536C23.2436 66.536 20.4916 66.28 17.9316 65.768C15.4356 65.32 13.2276 64.648 11.3076 63.752C9.45163 62.792 7.97963 61.64 6.89163 60.296C5.86763 58.888 5.35563 57.288 5.35563 55.496C5.35563 53.64 5.89963 52.072 6.98763 50.792C8.07563 49.448 9.25963 48.424 10.5396 47.72C12.3316 49.128 14.5076 50.344 17.0676 51.368C19.6916 52.392 22.5396 52.904 25.6116 52.904C28.7476 52.904 30.9556 52.424 32.2356 51.464C33.5156 50.504 34.1556 49.384 34.1556 48.104C34.1556 46.824 33.6436 45.864 32.6196 45.224C31.5956 44.52 30.1556 43.848 28.2996 43.208L24.2676 41.864ZM82.4226 33.8C85.1106 33.8 87.1586 33.192 88.5666 31.976C90.0386 30.696 90.7746 28.776 90.7746 26.216C90.7746 23.784 90.0066 21.928 88.4706 20.648C86.9986 19.304 84.8226 18.632 81.9426 18.632C80.9186 18.632 80.0546 18.664 79.3506 18.728C78.7106 18.728 78.0386 18.792 77.3346 18.92V33.8H82.4226ZM77.4306 64.616C76.7266 64.808 75.6066 65 74.0706 65.192C72.5986 65.384 71.1266 65.48 69.6546 65.48C68.1826 65.48 66.8706 65.352 65.7186 65.096C64.6306 64.904 63.7026 64.52 62.9346 63.944C62.1666 63.368 61.5906 62.568 61.2066 61.544C60.8226 60.52 60.6306 59.176 60.6306 57.512V12.296C60.6306 10.952 60.9826 9.928 61.6866 9.224C62.4546 8.456 63.4786 7.848 64.7586 7.4C66.9346 6.632 69.3986 6.088 72.1506 5.768C74.9666 5.384 77.7826 5.192 80.5986 5.192C89.4306 5.192 96.1826 7.08 100.855 10.856C105.527 14.632 107.863 19.752 107.863 26.216C107.863 29.352 107.351 32.2 106.327 34.76C105.367 37.256 103.895 39.432 101.911 41.288C99.9906 43.08 97.5266 44.488 94.5186 45.512C91.5746 46.472 88.1506 46.952 84.2466 46.952H77.4306V64.616ZM133.116 46.184V64.616C132.412 64.808 131.292 65 129.756 65.192C128.284 65.384 126.812 65.48 125.34 65.48C123.868 65.48 122.556 65.352 121.404 65.096C120.316 64.904 119.388 64.52 118.62 63.944C117.916 63.368 117.372 62.568 116.988 61.544C116.604 60.52 116.412 59.176 116.412 57.512V12.296C116.412 10.952 116.764 9.928 117.468 9.224C118.236 8.456 119.26 7.848 120.54 7.4C122.716 6.632 125.244 6.088 128.124 5.768C131.004 5.384 134.076 5.192 137.34 5.192C146.172 5.192 152.828 7.048 157.308 10.76C161.788 14.472 164.028 19.496 164.028 25.832C164.028 29.8 163.004 33.192 160.956 36.008C158.908 38.824 156.476 41 153.66 42.536C155.964 45.672 158.236 48.616 160.476 51.368C162.716 54.12 164.476 56.616 165.756 58.856C165.116 61.096 163.932 62.824 162.204 64.04C160.54 65.192 158.652 65.768 156.54 65.768C155.132 65.768 153.916 65.608 152.892 65.288C151.868 64.968 150.972 64.52 150.204 63.944C149.436 63.368 148.732 62.664 148.092 61.832C147.452 61 146.844 60.104 146.268 59.144L138.204 46.184H133.116ZM139.164 33.416C141.596 33.416 143.516 32.808 144.924 31.592C146.332 30.312 147.036 28.456 147.036 26.024C147.036 23.592 146.236 21.768 144.636 20.552C143.1 19.272 140.636 18.632 137.244 18.632C136.284 18.632 135.516 18.664 134.94 18.728C134.364 18.792 133.724 18.888 133.02 19.016V33.416H139.164ZM191.712 64.616C191.008 64.808 189.888 65 188.352 65.192C186.88 65.384 185.408 65.48 183.936 65.48C182.464 65.48 181.152 65.352 180 65.096C178.912 64.904 177.984 64.52 177.216 63.944C176.448 63.368 175.872 62.568 175.488 61.544C175.104 60.52 174.912 59.176 174.912 57.512V6.824C175.616 6.696 176.736 6.536 178.272 6.344C179.808 6.088 181.28 5.96 182.688 5.96C184.16 5.96 185.44 6.088 186.528 6.344C187.68 6.536 188.64 6.92 189.408 7.496C190.176 8.072 190.752 8.872 191.136 9.896C191.52 10.92 191.712 12.264 191.712 13.928V64.616ZM256.866 62.984C255.97 63.88 254.658 64.552 252.93 65C251.266 65.512 249.25 65.768 246.882 65.768C244.514 65.768 242.274 65.416 240.162 64.712C238.05 64.008 236.322 62.312 234.978 59.624L225.474 40.232C224.514 38.248 223.65 36.392 222.882 34.664C222.114 32.872 221.282 30.824 220.386 28.52L219.81 28.616C220.066 32.072 220.194 35.592 220.194 39.176C220.258 42.76 220.29 46.28 220.29 49.736V64.616C219.586 64.808 218.498 65 217.026 65.192C215.618 65.384 214.21 65.48 212.802 65.48C211.394 65.48 210.146 65.384 209.058 65.192C207.97 65 207.074 64.616 206.37 64.04C205.666 63.464 205.122 62.696 204.738 61.736C204.354 60.712 204.162 59.4 204.162 57.8V9.8C205.058 8.52 206.434 7.56 208.29 6.92C210.146 6.28 212.13 5.96 214.242 5.96C216.61 5.96 218.85 6.344 220.962 7.112C223.138 7.816 224.866 9.48 226.146 12.104L235.746 31.496C236.706 33.48 237.57 35.368 238.338 37.16C239.106 38.888 239.938 40.904 240.834 43.208L241.314 43.112C241.058 39.656 240.898 36.2 240.834 32.744C240.77 29.288 240.738 25.832 240.738 22.376V6.824C241.442 6.632 242.498 6.44 243.906 6.248C245.378 6.056 246.818 5.96 248.226 5.96C251.042 5.96 253.186 6.472 254.658 7.496C256.13 8.456 256.866 10.504 256.866 13.64V62.984ZM286.214 43.4V64.616C285.51 64.808 284.39 65 282.854 65.192C281.318 65.384 279.814 65.48 278.342 65.48C276.87 65.48 275.558 65.352 274.406 65.096C273.318 64.904 272.39 64.52 271.622 63.944C270.854 63.368 270.278 62.568 269.894 61.544C269.51 60.52 269.318 59.176 269.318 57.512V6.824C270.022 6.696 271.142 6.536 272.678 6.344C274.214 6.088 275.686 5.96 277.094 5.96C278.566 5.96 279.846 6.088 280.934 6.344C282.086 6.536 283.046 6.92 283.814 7.496C284.582 8.072 285.158 8.872 285.542 9.896C285.926 10.92 286.118 12.264 286.118 13.928V29.192L306.086 6.248C310.438 6.248 313.542 7.08 315.398 8.744C317.318 10.344 318.278 12.264 318.278 14.504C318.278 16.168 317.862 17.736 317.03 19.208C316.198 20.68 314.854 22.344 312.998 24.2L300.998 36.2C302.598 37.992 304.262 39.848 305.99 41.768C307.782 43.688 309.51 45.576 311.174 47.432C312.902 49.224 314.534 50.952 316.07 52.616C317.67 54.28 319.046 55.72 320.198 56.936C320.198 58.344 319.942 59.592 319.43 60.68C318.918 61.768 318.214 62.696 317.318 63.464C316.486 64.232 315.526 64.808 314.438 65.192C313.35 65.576 312.198 65.768 310.982 65.768C308.358 65.768 306.214 65.128 304.55 63.848C302.886 62.504 301.286 60.936 299.75 59.144L286.214 43.4ZM337.309 65.288C334.557 65.288 332.381 64.488 330.781 62.888C329.181 61.288 328.381 59.112 328.381 56.36V6.72799C329.085 6.6 330.205 6.44 331.741 6.248C333.277 5.99199 334.749 5.86399 336.157 5.86399C337.629 5.86399 338.909 5.99199 339.997 6.248C341.149 6.44 342.109 6.824 342.877 7.4C343.645 7.976 344.221 8.776 344.605 9.8C344.989 10.824 345.181 12.168 345.181 13.832V51.752H367.165C367.613 52.456 368.029 53.416 368.413 54.632C368.797 55.784 368.989 57 368.989 58.28C368.989 60.84 368.445 62.664 367.357 63.752C366.269 64.776 364.829 65.288 363.037 65.288H337.309ZM390.921 8.552C392.009 7.912 393.641 7.304 395.817 6.72799C398.057 6.15199 400.297 5.86399 402.537 5.86399C405.737 5.86399 408.553 6.344 410.985 7.304C413.481 8.2 415.081 9.64 415.785 11.624C416.937 14.952 418.185 18.824 419.529 23.24C420.873 27.656 422.217 32.232 423.561 36.968C424.905 41.64 426.217 46.28 427.497 50.888C428.777 55.432 429.897 59.464 430.857 62.984C430.089 63.88 428.937 64.584 427.401 65.096C425.865 65.672 424.041 65.96 421.929 65.96C420.393 65.96 419.081 65.832 417.993 65.576C416.969 65.32 416.105 64.936 415.401 64.424C414.761 63.912 414.217 63.24 413.769 62.408C413.385 61.576 413.033 60.616 412.713 59.528L410.985 52.904H393.609C393.097 54.824 392.585 56.808 392.073 58.856C391.561 60.904 391.049 62.888 390.537 64.808C389.641 65.128 388.681 65.384 387.657 65.576C386.697 65.832 385.513 65.96 384.105 65.96C380.841 65.96 378.409 65.416 376.809 64.328C375.273 63.176 374.505 61.608 374.505 59.624C374.505 58.728 374.633 57.832 374.889 56.936C375.145 56.04 375.433 54.984 375.753 53.768C376.201 52.04 376.809 49.896 377.577 47.336C378.409 44.776 379.305 42.024 380.265 39.08C381.225 36.072 382.249 33 383.337 29.864C384.425 26.728 385.449 23.784 386.409 21.032C387.369 18.216 388.233 15.72 389.001 13.544C389.833 11.368 390.473 9.704 390.921 8.552ZM402.441 20.936C401.545 23.624 400.521 26.632 399.369 29.96C398.281 33.224 397.289 36.552 396.393 39.944H408.297C407.401 36.488 406.473 33.128 405.513 29.864C404.617 26.536 403.785 23.56 403.017 20.936H402.441Z" fill="white"/>
<path d="M24.2676 41.864L22.6543 46.5965L22.6704 46.602L22.6865 46.6074L24.2676 41.864ZM16.5876 38.984L14.5569 43.5531L14.6105 43.5769L14.6645 43.5994L16.5876 38.984ZM6.69962 30.344L2.14277 32.4019L2.18337 32.4918L2.22749 32.5801L6.69962 30.344ZM11.5956 10.088L8.53839 6.13157L8.52375 6.14289L8.50919 6.15431L11.5956 10.088ZM36.9396 5.768L37.74 0.83247L37.74 0.832468L36.9396 5.768ZM42.9876 7.592L40.7516 12.0641L40.8531 12.1149L40.9569 12.1611L42.9876 7.592ZM47.0196 10.664L43.0196 13.664L43.0568 13.7136L43.0952 13.7622L47.0196 10.664ZM47.3076 19.304L51.4679 22.0775L51.5021 22.0261L51.5351 21.974L47.3076 19.304ZM44.5236 22.28L41.8392 26.4983L44.7862 28.3736L47.5609 26.2518L44.5236 22.28ZM38.8596 19.976L37.4348 24.7687L37.4947 24.7865L37.5551 24.8028L38.8596 19.976ZM24.7476 20.168L27.2283 24.5092L27.3047 24.4656L27.3794 24.4193L24.7476 20.168ZM23.9796 25.544L20.9311 29.5071L21.0305 29.5836L21.1336 29.655L23.9796 25.544ZM27.7236 27.176L29.2508 22.4149L29.2225 22.4058L29.194 22.3971L27.7236 27.176ZM32.8116 28.808L31.2845 33.5691L31.2914 33.5713L32.8116 28.808ZM46.6356 36.2L43.2111 39.8431L43.2486 39.8784L43.2868 39.9128L46.6356 36.2ZM45.0996 61.544L48.1653 65.4939L48.1835 65.4798L48.2016 65.4654L45.0996 61.544ZM17.9316 65.768L18.9122 60.8651L18.8637 60.8554L18.8149 60.8466L17.9316 65.768ZM11.3076 63.752L9.01051 68.1931L9.10094 68.2399L9.1932 68.2829L11.3076 63.752ZM6.89162 60.296L2.84795 63.2369L2.92402 63.3415L3.0054 63.442L6.89162 60.296ZM6.98763 50.792L10.7973 54.0302L10.8361 53.9846L10.8738 53.938L6.98763 50.792ZM10.5396 47.72L13.6287 43.7884L11.028 41.745L8.13004 43.3389L10.5396 47.72ZM17.0676 51.368L15.2107 56.0104L15.2303 56.0182L15.2499 56.0259L17.0676 51.368ZM32.2356 51.464L35.2356 55.464L32.2356 51.464ZM32.6196 45.224L29.787 49.3442L29.877 49.4061L29.9696 49.464L32.6196 45.224ZM28.2996 43.208L29.9296 38.4811L29.9052 38.4727L29.8808 38.4646L28.2996 43.208ZM24.2676 41.864L25.881 37.1314C23.1504 36.2006 20.6957 35.279 18.5107 34.3686L16.5876 38.984L14.6645 43.5994C17.0875 44.609 19.7529 45.6074 22.6543 46.5965L24.2676 41.864ZM16.5876 38.984L18.6183 34.4149C16.6814 33.5541 15.1159 32.5772 13.8653 31.5191L10.6356 35.336L7.40591 39.1529C9.48336 40.9108 11.8859 42.3659 14.5569 43.5531L16.5876 38.984ZM10.6356 35.336L13.8653 31.5191C12.7101 30.5415 11.8242 29.4128 11.1718 28.1079L6.69962 30.344L2.22749 32.5801C3.49508 35.1152 5.2332 37.3145 7.40591 39.1529L10.6356 35.336ZM6.69962 30.344L11.2565 28.2861C10.7249 27.1091 10.3556 25.4502 10.3556 23.144H5.35563H0.355629C0.355629 26.4697 0.882309 29.6109 2.14277 32.4019L6.69962 30.344ZM5.35563 23.144H10.3556C10.3556 19.1879 11.7701 16.3065 14.6821 14.0217L11.5956 10.088L8.50919 6.15431C3.10115 10.3975 0.355629 16.2201 0.355629 23.144H5.35563ZM11.5956 10.088L14.6529 14.0444C17.7031 11.6874 22.3665 10.192 29.2596 10.192V5.192V0.191998C21.0488 0.191998 13.9362 1.96057 8.53839 6.13157L11.5956 10.088ZM29.2596 5.192V10.192C31.7817 10.192 34.0711 10.3681 36.1393 10.7035L36.9396 5.768L37.74 0.832468C35.0722 0.399849 32.2415 0.191998 29.2596 0.191998V5.192ZM36.9396 5.768L36.1393 10.7035C38.1446 11.0287 39.649 11.5128 40.7516 12.0641L42.9876 7.592L45.2237 3.11986C42.9983 2.00717 40.4707 1.27529 37.74 0.83247L36.9396 5.768ZM42.9876 7.592L40.9569 12.1611C42.0476 12.6458 42.6573 13.181 43.0196 13.664L47.0196 10.664L51.0196 7.66399C49.4619 5.58704 47.3837 4.07421 45.0183 3.02294L42.9876 7.592ZM47.0196 10.664L43.0952 13.7622C43.3053 14.0284 43.4596 14.3553 43.4596 14.984H48.4596H53.4596C53.4596 12.2847 52.6539 9.73164 50.944 7.56577L47.0196 10.664ZM48.4596 14.984H43.4596C43.4596 15.8543 43.2683 16.3362 43.0802 16.634L47.3076 19.304L51.5351 21.974C52.8829 19.8398 53.4596 17.4417 53.4596 14.984H48.4596ZM47.3076 19.304L43.1474 16.5305C42.6817 17.229 42.1317 17.8147 41.4864 18.3082L44.5236 22.28L47.5609 26.2518C49.0915 25.0813 50.3975 23.683 51.4679 22.0775L47.3076 19.304ZM44.5236 22.28L47.208 18.0617C45.2241 16.7992 42.8134 15.8652 40.1642 15.1492L38.8596 19.976L37.5551 24.8028C39.6418 25.3668 41.0071 25.9688 41.8392 26.4983L44.5236 22.28ZM38.8596 19.976L40.2845 15.1833C37.3946 14.3242 34.3159 13.92 31.0836 13.92V18.92V23.92C33.4833 23.92 35.5886 24.2198 37.4348 24.7687L38.8596 19.976ZM31.0836 18.92V13.92C27.9294 13.92 24.6663 14.3378 22.1159 15.9167L24.7476 20.168L27.3794 24.4193C27.3778 24.4203 27.4407 24.3815 27.5979 24.3248C27.755 24.268 27.9856 24.2008 28.3059 24.1377C28.9577 24.0094 29.8668 23.92 31.0836 23.92V18.92ZM24.7476 20.168L22.2669 15.8268C19.8583 17.2032 17.7316 19.6299 17.7316 23.144H22.7316H27.7316C27.7316 23.3067 27.7082 23.5091 27.641 23.7298C27.5736 23.9511 27.4773 24.1415 27.3752 24.2922C27.1767 24.5853 27.0326 24.6211 27.2283 24.5092L24.7476 20.168ZM22.7316 23.144H17.7316C17.7316 25.8159 19.0009 28.0224 20.9311 29.5071L23.9796 25.544L27.0282 21.5809C27.0956 21.6328 27.3006 21.8128 27.4797 22.1572C27.6661 22.5156 27.7316 22.8743 27.7316 23.144H22.7316ZM23.9796 25.544L21.1336 29.655C22.5842 30.6592 24.3981 31.3841 26.2532 31.9549L27.7236 27.176L29.194 22.3971C27.7212 21.9439 27.039 21.5808 26.8257 21.433L23.9796 25.544ZM27.7236 27.176L26.1965 31.9371L31.2845 33.5691L32.8116 28.808L34.3388 24.0469L29.2508 22.4149L27.7236 27.176ZM32.8116 28.808L31.2914 33.5713C36.8856 35.3567 40.7387 37.5191 43.2111 39.8431L46.6356 36.2L50.0602 32.5569C46.1326 28.8649 40.7697 26.0993 34.3318 24.0447L32.8116 28.808ZM46.6356 36.2L43.2868 39.9128C45.3233 41.7497 46.5316 44.3353 46.5316 48.296H51.5316H56.5316C56.5316 42.0167 54.476 36.5383 49.9845 32.4872L46.6356 36.2ZM51.5316 48.296H46.5316C46.5316 52.1985 45.0939 55.1733 41.9976 57.6226L45.0996 61.544L48.2016 65.4654C53.6814 61.1307 56.5316 55.2735 56.5316 48.296H51.5316ZM45.0996 61.544L42.034 57.5941C38.981 59.9635 33.9572 61.536 26.1876 61.536V66.536V71.536C35.0581 71.536 42.6422 69.7805 48.1653 65.4939L45.0996 61.544ZM26.1876 66.536V61.536C23.5319 61.536 21.1115 61.305 18.9122 60.8651L17.9316 65.768L16.951 70.6709C19.8718 71.2551 22.9554 71.536 26.1876 71.536V66.536ZM17.9316 65.768L18.8149 60.8466C16.6638 60.4605 14.8824 59.9026 13.4221 59.2211L11.3076 63.752L9.1932 68.2829C11.5729 69.3934 14.2075 70.1795 17.0483 70.6894L17.9316 65.768ZM11.3076 63.752L13.6047 59.3109C12.237 58.6035 11.3506 57.8575 10.7778 57.15L6.89162 60.296L3.0054 63.442C4.60867 65.4225 6.66625 66.9805 9.01051 68.1931L11.3076 63.752ZM6.89162 60.296L10.9353 57.3551C10.5521 56.8282 10.3556 56.2644 10.3556 55.496H5.35563H0.355629C0.355629 58.3116 1.1832 60.9478 2.84795 63.2369L6.89162 60.296ZM5.35563 55.496H10.3556C10.3556 54.6932 10.5598 54.3097 10.7973 54.0302L6.98763 50.792L3.17793 47.5538C1.23943 49.8343 0.355629 52.5868 0.355629 55.496H5.35563ZM6.98763 50.792L10.8738 53.938C11.6278 53.0067 12.3309 52.4412 12.9492 52.1011L10.5396 47.72L8.13004 43.3389C6.18837 44.4068 4.52346 45.8893 3.1014 47.646L6.98763 50.792ZM10.5396 47.72L7.45052 51.6516C9.6861 53.4081 12.2976 54.8451 15.2107 56.0104L17.0676 51.368L18.9246 46.7256C16.7177 45.8429 14.9772 44.8479 13.6287 43.7884L10.5396 47.72ZM17.0676 51.368L15.2499 56.0259C18.5037 57.2957 21.9743 57.904 25.6116 57.904V52.904V47.904C23.105 47.904 20.8795 47.4883 18.8853 46.7101L17.0676 51.368ZM25.6116 52.904V57.904C28.952 57.904 32.5836 57.453 35.2356 55.464L32.2356 51.464L29.2356 47.464C29.3564 47.3735 29.2289 47.5122 28.5575 47.6581C27.9075 47.7994 26.949 47.904 25.6116 47.904V52.904ZM32.2356 51.464L35.2356 55.464C37.4255 53.8216 39.1556 51.3483 39.1556 48.104H34.1556H29.1556C29.1556 48.0024 29.169 47.8787 29.2045 47.7457C29.2399 47.6129 29.2886 47.5034 29.3344 47.4233C29.424 47.2665 29.4569 47.298 29.2356 47.464L32.2356 51.464ZM34.1556 48.104H39.1556C39.1556 45.2249 37.8583 42.602 35.2696 40.984L32.6196 45.224L29.9696 49.464C29.8229 49.3723 29.5598 49.1519 29.3599 48.7769C29.1668 48.4149 29.1556 48.1398 29.1556 48.104H34.1556ZM32.6196 45.224L35.4523 41.1038C33.9063 40.0409 31.9959 39.1937 29.9296 38.4811L28.2996 43.208L26.6697 47.9349C28.3153 48.5023 29.285 48.9991 29.787 49.3442L32.6196 45.224ZM28.2996 43.208L29.8808 38.4646L25.8488 37.1206L24.2676 41.864L22.6865 46.6074L26.7185 47.9514L28.2996 43.208ZM88.5666 31.976L91.8347 35.7601L91.8411 35.7546L91.8475 35.749L88.5666 31.976ZM88.4706 20.648L85.0993 24.3404L85.1828 24.4167L85.2697 24.4891L88.4706 20.648ZM79.3506 18.728V23.728H79.5774L79.8033 23.7075L79.3506 18.728ZM77.3346 18.92L76.4402 14.0006L72.3346 14.7471V18.92H77.3346ZM77.3346 33.8H72.3346V38.8H77.3346V33.8ZM77.4306 64.616L78.7462 69.4398L82.4306 68.435V64.616H77.4306ZM74.0706 65.192L73.4505 60.2306L73.4372 60.2323L73.4239 60.234L74.0706 65.192ZM65.7186 65.096L66.8033 60.2151L66.6959 60.1912L66.5876 60.1721L65.7186 65.096ZM62.9346 63.944L59.9346 67.944L62.9346 63.944ZM61.2066 61.544L56.525 63.2996V63.2996L61.2066 61.544ZM61.6866 9.224L65.2222 12.7595L65.2222 12.7595L61.6866 9.224ZM64.7586 7.4L66.4104 12.1193L66.4227 12.1149L64.7586 7.4ZM72.1506 5.768L72.7281 10.7345L72.7772 10.7288L72.8262 10.7221L72.1506 5.768ZM106.327 34.76L101.684 32.903L101.672 32.934L101.66 32.9651L106.327 34.76ZM101.911 41.288L105.322 44.9433L105.326 44.9394L101.911 41.288ZM94.5186 45.512L96.0687 50.2656L96.0994 50.2556L96.1299 50.2452L94.5186 45.512ZM77.4306 46.952V41.952H72.4306V46.952H77.4306ZM82.4226 33.8V38.8C85.7865 38.8 89.188 38.0459 91.8347 35.7601L88.5666 31.976L85.2985 28.1919C85.1292 28.3381 84.4347 28.8 82.4226 28.8V33.8ZM88.5666 31.976L91.8475 35.749C94.7283 33.244 95.7746 29.7428 95.7746 26.216H90.7746H85.7746C85.7746 27.8092 85.349 28.148 85.2857 28.203L88.5666 31.976ZM90.7746 26.216H95.7746C95.7746 22.6527 94.5932 19.2416 91.6716 16.8069L88.4706 20.648L85.2697 24.4891C85.42 24.6144 85.7746 24.9153 85.7746 26.216H90.7746ZM88.4706 20.648L91.842 16.9556C89.1107 14.4618 85.5211 13.632 81.9426 13.632V18.632V23.632C84.1242 23.632 84.8865 24.1462 85.0993 24.3404L88.4706 20.648ZM81.9426 18.632V13.632C80.828 13.632 79.8026 13.6663 78.8979 13.7485L79.3506 18.728L79.8033 23.7075C80.3066 23.6617 81.0092 23.632 81.9426 23.632V18.632ZM79.3506 18.728V13.728C78.378 13.728 77.4053 13.8252 76.4402 14.0006L77.3346 18.92L78.229 23.8393C78.672 23.7588 79.0433 23.728 79.3506 23.728V18.728ZM77.3346 18.92H72.3346V33.8H77.3346H82.3346V18.92H77.3346ZM77.3346 33.8V38.8H82.4226V33.8V28.8H77.3346V33.8ZM77.4306 64.616L76.115 59.7922C75.7743 59.8851 74.9513 60.043 73.4505 60.2306L74.0706 65.192L74.6908 70.1534C76.2619 69.957 77.6789 69.7309 78.7462 69.4398L77.4306 64.616ZM74.0706 65.192L73.4239 60.234C72.1645 60.3983 70.9086 60.48 69.6546 60.48V65.48V70.48C71.3447 70.48 73.0327 70.3697 74.7173 70.15L74.0706 65.192ZM69.6546 65.48V60.48C68.462 60.48 67.5244 60.3753 66.8033 60.2151L65.7186 65.096L64.634 69.9769C66.2168 70.3287 67.9033 70.48 69.6546 70.48V65.48ZM65.7186 65.096L66.5876 60.1721C66.1556 60.0959 65.986 59.9826 65.9346 59.944L62.9346 63.944L59.9346 67.944C61.4192 69.0574 63.1057 69.7121 64.8497 70.0199L65.7186 65.096ZM62.9346 63.944L65.9346 59.944C65.948 59.954 65.9608 59.9653 65.9715 59.9763C65.9821 59.9872 65.9862 59.9931 65.9843 59.9905C65.9815 59.9866 65.9416 59.9305 65.8883 59.7884L61.2066 61.544L56.525 63.2996C57.1961 65.0892 58.3013 66.719 59.9346 67.944L62.9346 63.944ZM61.2066 61.544L65.8883 59.7884C65.7947 59.539 65.6306 58.8566 65.6306 57.512H60.6306H55.6306C55.6306 59.4954 55.8505 61.501 56.525 63.2996L61.2066 61.544ZM60.6306 57.512H65.6306V12.296H60.6306H55.6306V57.512H60.6306ZM60.6306 12.296H65.6306C65.6306 12.049 65.6642 12.0256 65.6231 12.1454C65.6012 12.2089 65.5608 12.3051 65.491 12.4192C65.4205 12.5347 65.3304 12.6513 65.2222 12.7595L61.6866 9.224L58.1511 5.68846C56.2186 7.6209 55.6306 10.1032 55.6306 12.296H60.6306ZM61.6866 9.224L65.2222 12.7595C65.3439 12.6378 65.6674 12.3793 66.4104 12.1193L64.7586 7.4L63.1069 2.6807C61.2898 3.31668 59.5654 4.27419 58.1511 5.68847L61.6866 9.224ZM64.7586 7.4L66.4227 12.1149C68.1853 11.4929 70.2753 11.0197 72.7281 10.7345L72.1506 5.768L71.5731 0.801458C68.522 1.15624 65.684 1.77112 63.0945 2.68505L64.7586 7.4ZM72.1506 5.768L72.8262 10.7221C75.4204 10.3684 78.0107 10.192 80.5986 10.192V5.192V0.191998C77.5546 0.191998 74.5129 0.399597 71.4751 0.813845L72.1506 5.768ZM80.5986 5.192V10.192C88.8067 10.192 94.2636 11.9579 97.7117 14.7447L100.855 10.856L103.998 6.96729C98.1017 2.20212 90.0545 0.191998 80.5986 0.191998V5.192ZM100.855 10.856L97.7117 14.7447C101.111 17.4917 102.863 21.1306 102.863 26.216H107.863H112.863C112.863 18.3734 109.943 11.7723 103.998 6.96729L100.855 10.856ZM107.863 26.216H102.863C102.863 28.8026 102.442 31.0092 101.684 32.903L106.327 34.76L110.969 36.617C112.259 33.3908 112.863 29.9014 112.863 26.216H107.863ZM106.327 34.76L101.66 32.9651C100.976 34.7442 99.936 36.2885 98.4948 37.6366L101.911 41.288L105.326 44.9394C107.853 42.5755 109.758 39.7678 110.993 36.5549L106.327 34.76ZM101.911 41.288L98.499 37.6327C97.1929 38.8518 95.3835 39.9358 92.9073 40.7787L94.5186 45.512L96.1299 50.2452C99.6698 49.0402 102.788 47.3082 105.322 44.9433L101.911 41.288ZM94.5186 45.512L92.9685 40.7584C90.6359 41.519 87.755 41.952 84.2466 41.952V46.952V51.952C88.5462 51.952 92.5134 51.425 96.0687 50.2656L94.5186 45.512ZM84.2466 46.952V41.952H77.4306V46.952V51.952H84.2466V46.952ZM77.4306 46.952H72.4306V64.616H77.4306H82.4306V46.952H77.4306ZM133.116 46.184V41.184H128.116V46.184H133.116ZM133.116 64.616L134.431 69.4398L138.116 68.435V64.616H133.116ZM129.756 65.192L129.136 60.2306L129.122 60.2323L129.109 60.234L129.756 65.192ZM121.404 65.096L122.489 60.2151L122.381 60.1912L122.273 60.1721L121.404 65.096ZM118.62 63.944L115.454 67.8138L115.535 67.8806L115.62 67.944L118.62 63.944ZM116.988 61.544L112.306 63.2996V63.2996L116.988 61.544ZM117.468 9.224L121.003 12.7595L121.003 12.7595L117.468 9.224ZM120.54 7.4L122.192 12.1193L122.204 12.1149L120.54 7.4ZM128.124 5.768L128.676 10.7374L128.73 10.7314L128.785 10.7241L128.124 5.768ZM157.308 10.76L154.118 14.6101V14.6101L157.308 10.76ZM160.956 36.008L165 38.9489V38.9489L160.956 36.008ZM153.66 42.536L151.266 38.1465L146.243 40.886L149.63 45.4964L153.66 42.536ZM160.476 51.368L164.354 48.2116V48.2116L160.476 51.368ZM165.756 58.856L170.564 60.2296L171.142 58.2042L170.097 56.3753L165.756 58.856ZM162.204 64.04L165.05 68.151L165.066 68.1401L165.081 68.129L162.204 64.04ZM152.892 65.288L154.383 60.5156L152.892 65.288ZM150.204 63.944L153.204 59.944L150.204 63.944ZM148.092 61.832L144.129 64.8806L148.092 61.832ZM146.268 59.144L150.555 56.5715L150.535 56.5368L150.513 56.5025L146.268 59.144ZM138.204 46.184L142.449 43.5425L140.982 41.184H138.204V46.184ZM144.924 31.592L148.192 35.3761L148.24 35.3345L148.287 35.2917L144.924 31.592ZM144.636 20.552L141.435 24.3931L141.521 24.4649L141.61 24.5328L144.636 20.552ZM133.02 19.016L132.125 14.0966L128.02 14.8431V19.016H133.02ZM133.02 33.416H128.02V38.416H133.02V33.416ZM133.116 46.184H128.116V64.616H133.116H138.116V46.184H133.116ZM133.116 64.616L131.8 59.7922C131.46 59.8851 130.637 60.043 129.136 60.2306L129.756 65.192L130.376 70.1534C131.947 69.957 133.364 69.7309 134.431 69.4398L133.116 64.616ZM129.756 65.192L129.109 60.234C127.85 60.3983 126.594 60.48 125.34 60.48V65.48V70.48C127.03 70.48 128.718 70.3697 130.403 70.15L129.756 65.192ZM125.34 65.48V60.48C124.147 60.48 123.21 60.3753 122.489 60.2151L121.404 65.096L120.319 69.9769C121.902 70.3287 123.589 70.48 125.34 70.48V65.48ZM121.404 65.096L122.273 60.1721C121.841 60.0959 121.671 59.9826 121.62 59.944L118.62 63.944L115.62 67.944C117.104 69.0574 118.791 69.7121 120.535 70.0199L121.404 65.096ZM118.62 63.944L121.786 60.0742C121.829 60.1093 121.837 60.1283 121.819 60.1004C121.797 60.0689 121.74 59.9754 121.67 59.7884L116.988 61.544L112.306 63.2996C112.937 64.9824 113.941 66.5759 115.454 67.8138L118.62 63.944ZM116.988 61.544L121.67 59.7884C121.576 59.539 121.412 58.8566 121.412 57.512H116.412H111.412C111.412 59.4954 111.632 61.501 112.306 63.2996L116.988 61.544ZM116.412 57.512H121.412V12.296H116.412H111.412V57.512H116.412ZM116.412 12.296H121.412C121.412 12.049 121.445 12.0256 121.404 12.1454C121.382 12.2089 121.342 12.3051 121.272 12.4192C121.202 12.5347 121.112 12.6513 121.003 12.7595L117.468 9.224L113.932 5.68846C112 7.6209 111.412 10.1032 111.412 12.296H116.412ZM117.468 9.224L121.003 12.7595C121.125 12.6378 121.449 12.3793 122.192 12.1193L120.54 7.4L118.888 2.6807C117.071 3.31668 115.347 4.27419 113.932 5.68847L117.468 9.224ZM120.54 7.4L122.204 12.1149C123.943 11.5013 126.083 11.0255 128.676 10.7374L128.124 5.768L127.572 0.798576C124.404 1.15051 121.489 1.76266 118.876 2.68505L120.54 7.4ZM128.124 5.768L128.785 10.7241C131.421 10.3727 134.27 10.192 137.34 10.192V5.192V0.191998C133.881 0.191998 130.587 0.395342 127.463 0.811855L128.124 5.768ZM137.34 5.192V10.192C145.585 10.192 150.897 11.9413 154.118 14.6101L157.308 10.76L160.498 6.90989C154.759 2.15467 146.759 0.191998 137.34 0.191998V5.192ZM157.308 10.76L154.118 14.6101C157.34 17.2801 159.028 20.8341 159.028 25.832H164.028H169.028C169.028 18.1579 166.236 11.6639 160.498 6.90989L157.308 10.76ZM164.028 25.832H159.028C159.028 28.8968 158.254 31.2221 156.912 33.0671L160.956 36.008L165 38.9489C167.754 35.1619 169.028 30.7032 169.028 25.832H164.028ZM160.956 36.008L156.912 33.0671C155.262 35.3361 153.377 36.9948 151.266 38.1465L153.66 42.536L156.054 46.9255C159.575 45.0052 162.554 42.3119 165 38.9489L160.956 36.008ZM153.66 42.536L149.63 45.4964C151.979 48.6927 154.301 51.7025 156.598 54.5244L160.476 51.368L164.354 48.2116C162.171 45.5295 159.949 42.6513 157.689 39.5756L153.66 42.536ZM160.476 51.368L156.598 54.5244C158.725 57.1369 160.31 59.4037 161.415 61.3367L165.756 58.856L170.097 56.3753C168.642 53.8283 166.707 51.1031 164.354 48.2116L160.476 51.368ZM165.756 58.856L160.948 57.4824C160.588 58.7432 160.022 59.4613 159.326 59.951L162.204 64.04L165.081 68.129C167.841 66.1868 169.644 63.4488 170.564 60.2296L165.756 58.856ZM162.204 64.04L159.358 59.929C158.568 60.476 157.682 60.768 156.54 60.768V65.768V70.768C159.622 70.768 162.512 69.908 165.05 68.151L162.204 64.04ZM156.54 65.768V60.768C155.489 60.768 154.801 60.6461 154.383 60.5156L152.892 65.288L151.4 70.0604C153.031 70.5699 154.775 70.768 156.54 70.768V65.768ZM152.892 65.288L154.383 60.5156C153.839 60.3455 153.466 60.1409 153.204 59.944L150.204 63.944L147.204 67.944C148.477 68.8991 149.897 69.5905 151.4 70.0604L152.892 65.288ZM150.204 63.944L153.204 59.944C152.831 59.6641 152.444 59.2893 152.055 58.7834L148.092 61.832L144.129 64.8806C145.02 66.0387 146.041 67.0719 147.204 67.944L150.204 63.944ZM148.092 61.832L152.055 58.7834C151.54 58.1134 151.039 57.3775 150.555 56.5715L146.268 59.144L141.98 61.7165C142.649 62.8305 143.364 63.8866 144.129 64.8806L148.092 61.832ZM146.268 59.144L150.513 56.5025L142.449 43.5425L138.204 46.184L133.959 48.8255L142.023 61.7855L146.268 59.144ZM138.204 46.184V41.184H133.116V46.184V51.184H138.204V46.184ZM139.164 33.416V38.416C142.42 38.416 145.627 37.5912 148.192 35.3761L144.924 31.592L141.656 27.8079C141.405 28.0248 140.771 28.416 139.164 28.416V33.416ZM144.924 31.592L148.287 35.2917C151.011 32.8158 152.036 29.4477 152.036 26.024H147.036H142.036C142.036 27.4643 141.653 27.8082 141.561 27.8923L144.924 31.592ZM147.036 26.024H152.036C152.036 22.3967 150.771 18.9348 147.661 16.5712L144.636 20.552L141.61 24.5328C141.701 24.6012 142.036 24.7873 142.036 26.024H147.036ZM144.636 20.552L147.837 16.7109C144.96 14.3139 141.06 13.632 137.244 13.632V18.632V23.632C140.211 23.632 141.239 24.2301 141.435 24.3931L144.636 20.552ZM137.244 18.632V13.632C136.202 13.632 135.227 13.6654 134.388 13.7586L134.94 18.728L135.492 23.6974C135.805 23.6626 136.366 23.632 137.244 23.632V18.632ZM134.94 18.728L134.388 13.7586C133.674 13.8379 132.918 13.9526 132.125 14.0966L133.02 19.016L133.914 23.9353C134.53 23.8234 135.053 23.7461 135.492 23.6974L134.94 18.728ZM133.02 19.016H128.02V33.416H133.02H138.02V19.016H133.02ZM133.02 33.416V38.416H139.164V33.416V28.416H133.02V33.416ZM191.712 64.616L193.027 69.4398L196.712 68.435V64.616H191.712ZM188.352 65.192L187.732 60.2306L187.718 60.2323L187.705 60.234L188.352 65.192ZM180 65.096L181.085 60.2151L180.977 60.1912L180.869 60.1721L180 65.096ZM177.216 63.944L174.216 67.944L177.216 63.944ZM175.488 61.544L170.806 63.2996V63.2996L175.488 61.544ZM174.912 6.824L174.017 1.90465L169.912 2.65113V6.824H174.912ZM178.272 6.344L178.892 11.3054L178.993 11.2927L179.094 11.276L178.272 6.344ZM186.528 6.344L185.383 11.2111L185.543 11.2489L185.706 11.276L186.528 6.344ZM189.408 7.496L186.408 11.496V11.496L189.408 7.496ZM191.136 9.896L186.454 11.6516V11.6516L191.136 9.896ZM191.712 64.616L190.396 59.7922C190.056 59.8851 189.233 60.043 187.732 60.2306L188.352 65.192L188.972 70.1534C190.543 69.957 191.96 69.7309 193.027 69.4398L191.712 64.616ZM188.352 65.192L187.705 60.234C186.446 60.3983 185.19 60.48 183.936 60.48V65.48V70.48C185.626 70.48 187.314 70.3697 188.999 70.15L188.352 65.192ZM183.936 65.48V60.48C182.743 60.48 181.806 60.3753 181.085 60.2151L180 65.096L178.915 69.9769C180.498 70.3287 182.185 70.48 183.936 70.48V65.48ZM180 65.096L180.869 60.1721C180.437 60.0959 180.267 59.9826 180.216 59.944L177.216 63.944L174.216 67.944C175.7 69.0574 177.387 69.7121 179.131 70.0199L180 65.096ZM177.216 63.944L180.216 59.944C180.229 59.954 180.242 59.9653 180.253 59.9763C180.263 59.9872 180.267 59.9931 180.266 59.9905C180.263 59.9866 180.223 59.9305 180.17 59.7884L175.488 61.544L170.806 63.2996C171.477 65.0892 172.583 66.719 174.216 67.944L177.216 63.944ZM175.488 61.544L180.17 59.7884C180.076 59.539 179.912 58.8566 179.912 57.512H174.912H169.912C169.912 59.4954 170.132 61.501 170.806 63.2996L175.488 61.544ZM174.912 57.512H179.912V6.824H174.912H169.912V57.512H174.912ZM174.912 6.824L175.806 11.7433C176.365 11.6418 177.368 11.4959 178.892 11.3054L178.272 6.344L177.652 1.38261C176.104 1.57608 174.867 1.75016 174.017 1.90465L174.912 6.824ZM178.272 6.344L179.094 11.276C180.386 11.0606 181.582 10.96 182.688 10.96V5.96V0.959999C180.977 0.959999 179.229 1.11545 177.45 1.41203L178.272 6.344ZM182.688 5.96V10.96C183.888 10.96 184.767 11.0661 185.383 11.2111L186.528 6.344L187.673 1.47692C186.113 1.10987 184.432 0.959999 182.688 0.959999V5.96ZM186.528 6.344L185.706 11.276C186.237 11.3645 186.405 11.4939 186.408 11.496L189.408 7.496L192.408 3.496C190.875 2.34608 189.123 1.70754 187.35 1.41203L186.528 6.344ZM189.408 7.496L186.408 11.496C186.395 11.486 186.382 11.4747 186.371 11.4637C186.36 11.4528 186.356 11.4469 186.358 11.4495C186.361 11.4534 186.401 11.5095 186.454 11.6516L191.136 9.896L195.818 8.14039C195.146 6.35079 194.041 4.72102 192.408 3.496L189.408 7.496ZM191.136 9.896L186.454 11.6516C186.548 11.901 186.712 12.5834 186.712 13.928H191.712H196.712C196.712 11.9446 196.492 9.93896 195.818 8.14038L191.136 9.896ZM191.712 13.928H186.712V64.616H191.712H196.712V13.928H191.712ZM256.866 62.984L260.401 66.5195L261.866 65.0551V62.984H256.866ZM252.93 65L251.675 60.16L251.567 60.1881L251.459 60.2211L252.93 65ZM240.162 64.712L241.743 59.9686L240.162 64.712ZM234.978 59.624L230.488 61.8244L230.497 61.8423L230.506 61.8601L234.978 59.624ZM225.474 40.232L220.973 42.4098L220.979 42.4211L220.984 42.4324L225.474 40.232ZM222.882 34.664L218.286 36.6336L218.299 36.6642L218.313 36.6947L222.882 34.664ZM220.386 28.52L225.046 26.7078L223.573 22.9199L219.564 23.588L220.386 28.52ZM219.81 28.616L218.988 23.684L214.486 24.4343L214.824 28.9854L219.81 28.616ZM220.194 39.176H215.194V39.2206L215.195 39.2653L220.194 39.176ZM220.29 64.616L221.605 69.4398L225.29 68.435V64.616H220.29ZM217.026 65.192L216.379 60.234L216.365 60.2359L216.35 60.2378L217.026 65.192ZM209.058 65.192L209.927 60.2681L209.058 65.192ZM206.37 64.04L209.536 60.1702L206.37 64.04ZM204.738 61.736L200.056 63.4916L200.075 63.5425L200.095 63.593L204.738 61.736ZM204.162 9.8L200.066 6.93268L199.162 8.22388V9.8H204.162ZM208.29 6.92L206.66 2.19313L208.29 6.92ZM220.962 7.112L219.253 11.811L219.337 11.8416L219.423 11.8692L220.962 7.112ZM226.146 12.104L221.652 14.2961L221.658 14.3092L221.665 14.3223L226.146 12.104ZM235.746 31.496L240.247 29.3182L240.237 29.2979L240.227 29.2777L235.746 31.496ZM238.338 37.16L233.742 39.1296L233.755 39.1602L233.769 39.1907L238.338 37.16ZM240.834 43.208L236.174 45.0202L237.696 48.9346L241.814 48.1109L240.834 43.208ZM241.314 43.112L242.294 48.0149L246.627 47.1485L246.3 42.7426L241.314 43.112ZM240.834 32.744L245.833 32.6514L240.834 32.744ZM240.738 6.824L239.422 2.00018L235.738 3.00503V6.824H240.738ZM243.906 6.248L243.259 1.28999L243.245 1.29188L243.23 1.29384L243.906 6.248ZM254.658 7.496L251.803 11.6005L251.864 11.6432L251.927 11.6841L254.658 7.496ZM256.866 62.984L253.33 59.4485C253.271 59.5077 252.875 59.8489 251.675 60.16L252.93 65L254.185 69.84C256.441 69.2551 258.669 68.2523 260.401 66.5195L256.866 62.984ZM252.93 65L251.459 60.2211C250.408 60.5445 248.918 60.768 246.882 60.768V65.768V70.768C249.582 70.768 252.123 70.4795 254.4 69.7789L252.93 65ZM246.882 65.768V60.768C245.017 60.768 243.314 60.4921 241.743 59.9686L240.162 64.712L238.581 69.4554C241.234 70.3399 244.011 70.768 246.882 70.768V65.768ZM240.162 64.712L241.743 59.9686C241.279 59.814 240.414 59.3167 239.45 57.3879L234.978 59.624L230.506 61.8601C232.229 65.3073 234.821 68.202 238.581 69.4554L240.162 64.712ZM234.978 59.624L239.468 57.4236L229.964 38.0316L225.474 40.232L220.984 42.4324L230.488 61.8244L234.978 59.624ZM225.474 40.232L229.975 38.0542C229.034 36.1111 228.194 34.3046 227.451 32.6333L222.882 34.664L218.313 36.6947C219.106 38.4794 219.993 40.3849 220.973 42.4098L225.474 40.232ZM222.882 34.664L227.478 32.6944C226.737 30.9661 225.927 28.9722 225.046 26.7078L220.386 28.52L215.726 30.3322C216.637 32.6758 217.491 34.7779 218.286 36.6336L222.882 34.664ZM220.386 28.52L219.564 23.588L218.988 23.684L219.81 28.616L220.632 33.548L221.208 33.452L220.386 28.52ZM219.81 28.616L214.824 28.9854C215.07 32.3143 215.194 35.7111 215.194 39.176H220.194H225.194C225.194 35.4729 225.062 31.8297 224.796 28.2466L219.81 28.616ZM220.194 39.176L215.195 39.2653C215.258 42.8206 215.29 46.3108 215.29 49.736H220.29H225.29C225.29 46.2492 225.258 42.6994 225.193 39.0867L220.194 39.176ZM220.29 49.736H215.29V64.616H220.29H225.29V49.736H220.29ZM220.29 64.616L218.974 59.7922C218.615 59.8903 217.806 60.0479 216.379 60.234L217.026 65.192L217.673 70.15C219.19 69.9521 220.557 69.7257 221.605 69.4398L220.29 64.616ZM217.026 65.192L216.35 60.2378C215.164 60.3996 213.982 60.48 212.802 60.48V65.48V70.48C214.438 70.48 216.072 70.3684 217.701 70.1461L217.026 65.192ZM212.802 65.48V60.48C211.61 60.48 210.663 60.3979 209.927 60.2681L209.058 65.192L208.189 70.1159C209.629 70.3701 211.178 70.48 212.802 70.48V65.48ZM209.058 65.192L209.927 60.2681C209.712 60.2301 209.591 60.1865 209.539 60.1643C209.492 60.1438 209.5 60.1408 209.536 60.1702L206.37 64.04L203.204 67.9098C204.699 69.1332 206.438 69.8069 208.189 70.1159L209.058 65.192ZM206.37 64.04L209.536 60.1702C209.543 60.176 209.536 60.1726 209.514 60.1419C209.491 60.1087 209.44 60.0293 209.38 59.879L204.738 61.736L200.095 63.593C200.75 65.2291 201.76 66.7288 203.204 67.9098L206.37 64.04ZM204.738 61.736L209.42 59.9804C209.319 59.7136 209.162 59.053 209.162 57.8H204.162H199.162C199.162 59.747 199.388 61.7104 200.056 63.4916L204.738 61.736ZM204.162 57.8H209.162V9.8H204.162H199.162V57.8H204.162ZM204.162 9.8L208.258 12.6673C208.409 12.4517 208.803 12.0319 209.92 11.6469L208.29 6.92L206.66 2.19313C204.065 3.08808 201.707 4.58828 200.066 6.93268L204.162 9.8ZM208.29 6.92L209.92 11.6469C211.213 11.2009 212.642 10.96 214.242 10.96V5.96V0.959999C211.617 0.959999 209.079 1.35907 206.66 2.19313L208.29 6.92ZM214.242 5.96V10.96C216.059 10.96 217.718 11.2526 219.253 11.811L220.962 7.112L222.671 2.41303C219.982 1.43536 217.161 0.959999 214.242 0.959999V5.96ZM220.962 7.112L219.423 11.8692C219.972 12.047 220.794 12.5368 221.652 14.2961L226.146 12.104L230.64 9.91188C228.938 6.4232 226.303 3.58497 222.501 2.35477L220.962 7.112ZM226.146 12.104L221.665 14.3223L231.265 33.7143L235.746 31.496L240.227 29.2777L230.627 9.8857L226.146 12.104ZM235.746 31.496L231.245 33.6738C232.176 35.5978 233.008 37.416 233.742 39.1296L238.338 37.16L242.934 35.1904C242.132 33.32 241.236 31.3622 240.247 29.3182L235.746 31.496ZM238.338 37.16L233.769 39.1907C234.497 40.8287 235.298 42.7689 236.174 45.0202L240.834 43.208L245.494 41.3958C244.577 39.0391 243.715 36.9473 242.907 35.1293L238.338 37.16ZM240.834 43.208L241.814 48.1109L242.294 48.0149L241.314 43.112L240.333 38.2091L239.853 38.3051L240.834 43.208ZM241.314 43.112L246.3 42.7426C246.051 39.3785 245.895 36.0148 245.833 32.6514L240.834 32.744L235.835 32.8366C235.9 36.3852 236.065 39.9335 236.328 43.4814L241.314 43.112ZM240.834 32.744L245.833 32.6514C245.77 29.2263 245.738 25.8011 245.738 22.376H240.738H235.738C235.738 25.8629 235.77 29.3497 235.835 32.8366L240.834 32.744ZM240.738 22.376H245.738V6.824H240.738H235.738V22.376H240.738ZM240.738 6.824L242.053 11.6478C242.433 11.5442 243.228 11.3867 244.581 11.2021L243.906 6.248L243.23 1.29384C241.768 1.49326 240.45 1.7198 239.422 2.00018L240.738 6.824ZM243.906 6.248L244.553 11.206C245.822 11.0405 247.045 10.96 248.226 10.96V5.96V0.959999C246.59 0.959999 244.934 1.07153 243.259 1.28999L243.906 6.248ZM248.226 5.96V10.96C250.56 10.96 251.523 11.4058 251.803 11.6005L254.658 7.496L257.513 3.39147C254.849 1.53817 251.524 0.959999 248.226 0.959999V5.96ZM254.658 7.496L251.927 11.6841C251.551 11.439 251.519 11.1951 251.608 11.443C251.716 11.7423 251.866 12.4163 251.866 13.64H256.866H261.866C261.866 10.1184 261.1 5.7283 257.389 3.30794L254.658 7.496ZM256.866 13.64H251.866V62.984H256.866H261.866V13.64H256.866ZM286.214 43.4L290.006 40.1403L281.214 29.9149V43.4H286.214ZM286.214 64.616L287.53 69.4398L291.214 68.435V64.616H286.214ZM282.854 65.192L283.474 70.1534L282.854 65.192ZM274.406 65.096L275.491 60.2151L275.383 60.1912L275.275 60.1721L274.406 65.096ZM271.622 63.944L268.622 67.944L271.622 63.944ZM269.894 61.544L265.212 63.2996V63.2996L269.894 61.544ZM269.318 6.824L268.424 1.90465L264.318 2.65113V6.824H269.318ZM272.678 6.344L273.298 11.3054L273.4 11.2927L273.5 11.276L272.678 6.344ZM280.934 6.344L279.789 11.2111L279.949 11.2489L280.112 11.276L280.934 6.344ZM283.814 7.496L280.814 11.496V11.496L283.814 7.496ZM285.542 9.896L280.86 11.6516V11.6516L285.542 9.896ZM286.118 29.192H281.118V42.5534L289.89 32.4745L286.118 29.192ZM306.086 6.248V1.248H303.809L302.314 2.96554L306.086 6.248ZM315.398 8.744L312.06 12.4668L312.128 12.5272L312.197 12.5851L315.398 8.744ZM317.03 19.208L312.677 16.7477V16.7477L317.03 19.208ZM312.998 24.2L316.534 27.7355V27.7355L312.998 24.2ZM300.998 36.2L297.463 32.6645L294.122 36.0055L297.268 39.5301L300.998 36.2ZM305.99 41.768L302.274 45.1128L302.304 45.1465L302.335 45.1796L305.99 41.768ZM311.174 47.432L307.451 50.7697L307.512 50.8373L307.575 50.9027L311.174 47.432ZM316.07 52.616L312.396 56.0074L312.431 56.0448L312.466 56.0815L316.07 52.616ZM320.198 56.936H325.198V54.9436L323.828 53.4973L320.198 56.936ZM319.43 60.68L314.906 58.551V58.551L319.43 60.68ZM317.318 63.464L314.064 59.6677L313.994 59.7276L313.927 59.79L317.318 63.464ZM304.55 63.848L301.408 67.7377L301.455 67.775L301.502 67.8111L304.55 63.848ZM299.75 59.144L303.546 55.89L303.542 55.8843L299.75 59.144ZM286.214 43.4H281.214V64.616H286.214H291.214V43.4H286.214ZM286.214 64.616L284.899 59.7922C284.558 59.8851 283.735 60.043 282.234 60.2306L282.854 65.192L283.474 70.1534C285.045 69.957 286.462 69.7309 287.53 69.4398L286.214 64.616ZM282.854 65.192L282.234 60.2306C280.893 60.3982 279.596 60.48 278.342 60.48V65.48V70.48C280.032 70.48 281.743 70.3698 283.474 70.1534L282.854 65.192ZM278.342 65.48V60.48C277.149 60.48 276.212 60.3753 275.491 60.2151L274.406 65.096L273.321 69.9769C274.904 70.3287 276.591 70.48 278.342 70.48V65.48ZM274.406 65.096L275.275 60.1721C274.843 60.0959 274.674 59.9826 274.622 59.944L271.622 63.944L268.622 67.944C270.107 69.0574 271.793 69.7121 273.537 70.0199L274.406 65.096ZM271.622 63.944L274.622 59.944C274.635 59.954 274.648 59.9653 274.659 59.9763C274.67 59.9872 274.674 59.9931 274.672 59.9905C274.669 59.9866 274.629 59.9305 274.576 59.7884L269.894 61.544L265.212 63.2996C265.884 65.0892 266.989 66.719 268.622 67.944L271.622 63.944ZM269.894 61.544L274.576 59.7884C274.482 59.539 274.318 58.8566 274.318 57.512H269.318H264.318C264.318 59.4954 264.538 61.501 265.212 63.2996L269.894 61.544ZM269.318 57.512H274.318V6.824H269.318H264.318V57.512H269.318ZM269.318 6.824L270.213 11.7433C270.771 11.6418 271.774 11.4959 273.298 11.3054L272.678 6.344L272.058 1.38261C270.51 1.57608 269.273 1.75016 268.424 1.90465L269.318 6.824ZM272.678 6.344L273.5 11.276C274.793 11.0606 275.989 10.96 277.094 10.96V5.96V0.959999C275.384 0.959999 273.636 1.11545 271.856 1.41203L272.678 6.344ZM277.094 5.96V10.96C278.294 10.96 279.173 11.0661 279.789 11.2111L280.934 6.344L282.079 1.47692C280.519 1.10987 278.838 0.959999 277.094 0.959999V5.96ZM280.934 6.344L280.112 11.276C280.643 11.3645 280.811 11.4939 280.814 11.496L283.814 7.496L286.814 3.496C285.281 2.34608 283.529 1.70754 281.756 1.41203L280.934 6.344ZM283.814 7.496L280.814 11.496C280.801 11.486 280.788 11.4747 280.777 11.4637C280.767 11.4528 280.763 11.4469 280.764 11.4495C280.767 11.4534 280.807 11.5095 280.86 11.6516L285.542 9.896L290.224 8.14039C289.553 6.35079 288.447 4.72102 286.814 3.496L283.814 7.496ZM285.542 9.896L280.86 11.6516C280.954 11.901 281.118 12.5834 281.118 13.928H286.118H291.118C291.118 11.9446 290.898 9.93896 290.224 8.14038L285.542 9.896ZM286.118 13.928H281.118V29.192H286.118H291.118V13.928H286.118ZM286.118 29.192L289.89 32.4745L309.858 9.53045L306.086 6.248L302.314 2.96554L282.346 25.9095L286.118 29.192ZM306.086 6.248V11.248C310.044 11.248 311.597 12.0511 312.06 12.4668L315.398 8.744L318.736 5.02115C315.488 2.1089 310.832 1.248 306.086 1.248V6.248ZM315.398 8.744L312.197 12.5851C313.126 13.3592 313.278 13.9313 313.278 14.504H318.278H323.278C323.278 10.5967 321.51 7.32883 318.599 4.90289L315.398 8.744ZM318.278 14.504H313.278C313.278 15.2914 313.092 16.0136 312.677 16.7477L317.03 19.208L321.383 21.6683C322.632 19.4584 323.278 17.0446 323.278 14.504H318.278ZM317.03 19.208L312.677 16.7477C312.155 17.672 311.154 18.9728 309.463 20.6645L312.998 24.2L316.534 27.7355C318.554 25.7152 320.241 23.688 321.383 21.6683L317.03 19.208ZM312.998 24.2L309.463 20.6645L297.463 32.6645L300.998 36.2L304.534 39.7355L316.534 27.7355L312.998 24.2ZM300.998 36.2L297.268 39.5301C298.873 41.3274 300.542 43.1883 302.274 45.1128L305.99 41.768L309.707 38.4232C307.983 36.5077 306.323 34.6566 304.728 32.8699L300.998 36.2ZM305.99 41.768L302.335 45.1796C304.105 47.0765 305.811 48.9398 307.451 50.7697L311.174 47.432L314.897 44.0943C313.21 42.2121 311.459 40.2995 309.645 38.3564L305.99 41.768ZM311.174 47.432L307.575 50.9027C309.28 52.6711 310.887 54.3726 312.396 56.0074L316.07 52.616L319.744 49.2246C318.181 47.5314 316.524 45.7769 314.773 43.9613L311.174 47.432ZM316.07 52.616L312.466 56.0815C314.06 57.7397 315.427 59.1703 316.568 60.3747L320.198 56.936L323.828 53.4973C322.665 52.2697 321.28 50.8203 319.674 49.1505L316.07 52.616ZM320.198 56.936H315.198C315.198 57.7329 315.055 58.2335 314.906 58.551L319.43 60.68L323.954 62.809C324.829 60.9505 325.198 58.9551 325.198 56.936H320.198ZM319.43 60.68L314.906 58.551C314.689 59.0122 314.413 59.3684 314.064 59.6677L317.318 63.464L320.572 67.2603C322.015 66.0236 323.147 64.5238 323.954 62.809L319.43 60.68ZM317.318 63.464L313.927 59.79C313.603 60.0884 313.234 60.3147 312.774 60.4771L314.438 65.192L316.102 69.907C317.818 69.3013 319.369 68.3756 320.71 67.138L317.318 63.464ZM314.438 65.192L312.774 60.4771C312.249 60.6624 311.662 60.768 310.982 60.768V65.768V70.768C312.734 70.768 314.451 70.4896 316.102 69.907L314.438 65.192ZM310.982 65.768V60.768C309.18 60.768 308.19 60.3395 307.599 59.8849L304.55 63.848L301.502 67.8111C304.239 69.9165 307.536 70.768 310.982 70.768V65.768ZM304.55 63.848L307.692 59.9583C306.288 58.8243 304.904 57.4741 303.546 55.89L299.75 59.144L295.954 62.398C297.668 64.3979 299.484 66.1837 301.408 67.7377L304.55 63.848ZM299.75 59.144L303.542 55.8843L290.006 40.1403L286.214 43.4L282.423 46.6597L295.959 62.4037L299.75 59.144ZM330.781 62.888L334.316 59.3525L330.781 62.888ZM328.381 6.72799L327.486 1.80864L323.381 2.5551V6.72799H328.381ZM331.741 6.248L332.361 11.2094L332.462 11.1967L332.563 11.18L331.741 6.248ZM339.997 6.248L338.851 11.1151L339.012 11.1529L339.175 11.18L339.997 6.248ZM342.877 7.4L339.877 11.4V11.4L342.877 7.4ZM344.605 9.8L349.286 8.04438V8.04438L344.605 9.8ZM345.181 51.752H340.181V56.752H345.181V51.752ZM367.165 51.752L371.383 49.0676L369.909 46.752H367.165V51.752ZM368.413 54.632L363.645 56.1377L363.657 56.1755L363.669 56.2131L368.413 54.632ZM367.357 63.752L370.783 67.393L370.839 67.3411L370.892 67.2875L367.357 63.752ZM337.309 65.288V60.288C335.577 60.288 334.783 59.8188 334.316 59.3525L330.781 62.888L327.245 66.4235C329.979 69.1572 333.536 70.288 337.309 70.288V65.288ZM330.781 62.888L334.316 59.3525C333.85 58.8861 333.381 58.0915 333.381 56.36H328.381H323.381C323.381 60.1325 324.511 63.6899 327.245 66.4235L330.781 62.888ZM328.381 56.36H333.381V6.72799H328.381H323.381V56.36H328.381ZM328.381 6.72799L329.275 11.6473C329.833 11.5458 330.837 11.3999 332.361 11.2094L331.741 6.248L331.12 1.28661C329.573 1.48009 328.336 1.65416 327.486 1.80864L328.381 6.72799ZM331.741 6.248L332.563 11.18C333.855 10.9645 335.051 10.864 336.157 10.864V5.86399V0.863995C334.446 0.863995 332.698 1.01944 330.919 1.31603L331.741 6.248ZM336.157 5.86399V10.864C337.357 10.864 338.235 10.9701 338.851 11.1151L339.997 6.248L341.142 1.38091C339.582 1.01386 337.9 0.863995 336.157 0.863995V5.86399ZM339.997 6.248L339.175 11.18C339.706 11.2684 339.874 11.3979 339.877 11.4L342.877 7.4L345.877 3.4C344.343 2.25009 342.592 1.61155 340.819 1.31603L339.997 6.248ZM342.877 7.4L339.877 11.4C339.863 11.39 339.85 11.3787 339.84 11.3677C339.829 11.3568 339.825 11.3509 339.827 11.3535C339.83 11.3574 339.87 11.4135 339.923 11.5556L344.605 9.8L349.286 8.04438C348.615 6.25478 347.51 4.62502 345.877 3.4L342.877 7.4ZM344.605 9.8L339.923 11.5556C340.017 11.805 340.181 12.4874 340.181 13.832H345.181H350.181C350.181 11.8486 349.961 9.84295 349.286 8.04438L344.605 9.8ZM345.181 13.832H340.181V51.752H345.181H350.181V13.832H345.181ZM345.181 51.752V56.752H367.165V51.752V46.752H345.181V51.752ZM367.165 51.752L362.946 54.4364C363.072 54.6339 363.331 55.1428 363.645 56.1377L368.413 54.632L373.181 53.1263C372.727 51.6892 372.153 50.2781 371.383 49.0676L367.165 51.752ZM368.413 54.632L363.669 56.2131C363.874 56.8283 363.989 57.5082 363.989 58.28H368.989H373.989C373.989 56.4918 373.719 54.7397 373.156 53.0509L368.413 54.632ZM368.989 58.28H363.989C363.989 59.2313 363.885 59.8191 363.789 60.139C363.699 60.4414 363.655 60.3829 363.821 60.2165L367.357 63.752L370.892 67.2875C373.377 64.8031 373.989 61.3332 373.989 58.28H368.989ZM367.357 63.752L363.93 60.111C363.901 60.138 363.869 60.1632 363.786 60.1929C363.687 60.2279 363.458 60.288 363.037 60.288V65.288V70.288C365.833 70.288 368.589 69.4585 370.783 67.393L367.357 63.752ZM363.037 65.288V60.288H337.309V65.288V70.288H363.037V65.288ZM390.921 8.552L388.386 4.24233L386.89 5.12227L386.261 6.73977L390.921 8.552ZM395.817 6.72799L394.572 1.88553L394.555 1.88994L394.537 1.89447L395.817 6.72799ZM410.985 7.304L409.149 11.9548L409.222 11.9835L409.296 12.01L410.985 7.304ZM415.785 11.624L420.51 9.98844L420.503 9.97017L420.497 9.95195L415.785 11.624ZM419.529 23.24L424.312 21.7842L419.529 23.24ZM423.561 36.968L418.751 38.333L418.753 38.3417L418.756 38.3503L423.561 36.968ZM427.497 50.888L422.679 52.2262L422.682 52.235L422.684 52.2437L427.497 50.888ZM430.857 62.984L434.653 66.238L436.378 64.2255L435.681 61.6684L430.857 62.984ZM427.401 65.096L425.82 60.3526L425.732 60.3819L425.645 60.4144L427.401 65.096ZM417.993 65.576L416.78 70.4267L416.814 70.4351L416.848 70.4431L417.993 65.576ZM415.401 64.424L412.277 68.3283L412.367 68.4001L412.46 68.4677L415.401 64.424ZM413.769 62.408L409.229 64.5033L409.294 64.643L409.367 64.7785L413.769 62.408ZM412.713 59.528L407.875 60.7901L407.894 60.8648L407.916 60.9388L412.713 59.528ZM410.985 52.904L415.823 51.6419L414.848 47.904H410.985V52.904ZM393.609 52.904V47.904H389.767L388.778 51.6157L393.609 52.904ZM392.073 58.856L387.222 57.6433L392.073 58.856ZM390.537 64.808L392.219 69.5167L394.691 68.6335L395.368 66.0963L390.537 64.808ZM387.657 65.576L386.735 60.6616L386.55 60.6963L386.369 60.7448L387.657 65.576ZM376.809 64.328L373.809 68.328L373.902 68.3975L373.997 68.4626L376.809 64.328ZM374.889 56.936L370.081 55.5624L374.889 56.936ZM375.753 53.768L380.588 55.0405L380.591 55.0316L380.593 55.0228L375.753 53.768ZM377.577 47.336L372.822 45.7906L372.804 45.8447L372.788 45.8993L377.577 47.336ZM380.265 39.08L385.019 40.6301L385.023 40.6152L385.028 40.6002L380.265 39.08ZM383.337 29.864L378.613 28.2251L383.337 29.864ZM386.409 21.032L391.13 22.6789L391.136 22.6621L391.141 22.6454L386.409 21.032ZM389.001 13.544L384.331 11.7583L384.307 11.8188L384.286 11.8799L389.001 13.544ZM402.441 20.936V15.936H398.837L397.697 19.3549L402.441 20.936ZM399.369 29.96L394.644 28.3244L394.635 28.3516L394.625 28.3789L399.369 29.96ZM396.393 39.944L391.559 38.667L389.901 44.944H396.393V39.944ZM408.297 39.944V44.944H414.758L413.137 38.6892L408.297 39.944ZM405.513 29.864L400.685 31.1639L400.7 31.2195L400.716 31.2748L405.513 29.864ZM403.017 20.936L407.816 19.5315L406.763 15.936H403.017V20.936ZM390.921 8.552L393.456 12.8617C393.959 12.5659 395.074 12.0968 397.096 11.5615L395.817 6.72799L394.537 1.89447C392.207 2.51121 390.059 3.25809 388.386 4.24233L390.921 8.552ZM395.817 6.72799L397.062 11.5705C398.909 11.0956 400.73 10.864 402.537 10.864V5.86399V0.863995C399.863 0.863995 397.205 1.20834 394.572 1.88553L395.817 6.72799ZM402.537 5.86399V10.864C405.245 10.864 407.416 11.2708 409.149 11.9548L410.985 7.304L412.821 2.65322C409.689 1.41717 406.229 0.863995 402.537 0.863995V5.86399ZM410.985 7.304L409.296 12.01C410.779 12.5426 410.997 13.082 411.073 13.296L415.785 11.624L420.497 9.95195C419.165 6.198 416.182 3.85741 412.674 2.59803L410.985 7.304ZM415.785 11.624L411.06 13.2595C412.186 16.5131 413.415 20.3228 414.745 24.6958L419.529 23.24L424.312 21.7842C422.955 17.3252 421.688 13.3909 420.51 9.98844L415.785 11.624ZM419.529 23.24L414.745 24.6958C416.08 29.0797 417.415 33.6254 418.751 38.333L423.561 36.968L428.371 35.603C427.019 30.8386 425.666 26.2323 424.312 21.7842L419.529 23.24ZM423.561 36.968L418.756 38.3503C420.096 43.0079 421.403 47.6332 422.679 52.2262L427.497 50.888L432.314 49.5498C431.03 44.9268 429.714 40.2721 428.366 35.5857L423.561 36.968ZM427.497 50.888L422.684 52.2437C423.961 56.778 425.078 60.7962 426.033 64.2996L430.857 62.984L435.681 61.6684C434.716 58.1318 433.592 54.086 432.31 49.5323L427.497 50.888ZM430.857 62.984L427.061 59.73C427.06 59.7303 427.057 59.7346 427.049 59.7426C427.04 59.7506 427.027 59.7629 427.008 59.7789C426.969 59.811 426.906 59.8586 426.81 59.9176C426.613 60.0378 426.297 60.1934 425.82 60.3526L427.401 65.096L428.982 69.8394C431.071 69.1432 433.115 68.0321 434.653 66.238L430.857 62.984ZM427.401 65.096L425.645 60.4144C424.806 60.729 423.605 60.96 421.929 60.96V65.96V70.96C424.476 70.96 426.924 70.615 429.156 69.7776L427.401 65.096ZM421.929 65.96V60.96C420.646 60.96 419.741 60.8507 419.138 60.7089L417.993 65.576L416.848 70.4431C418.421 70.8133 420.14 70.96 421.929 70.96V65.96ZM417.993 65.576L419.206 60.7253C418.675 60.5927 418.429 60.4439 418.342 60.3803L415.401 64.424L412.46 68.4677C413.781 69.4281 415.263 70.0473 416.78 70.4267L417.993 65.576ZM415.401 64.424L418.524 60.5197C418.484 60.4871 418.349 60.3672 418.171 60.0375L413.769 62.408L409.367 64.7785C410.085 66.1128 411.038 67.3369 412.277 68.3283L415.401 64.424ZM413.769 62.408L418.309 60.3127C418.048 59.747 417.776 59.0236 417.51 58.1172L412.713 59.528L407.916 60.9388C408.289 62.2084 408.722 63.405 409.229 64.5033L413.769 62.408ZM412.713 59.528L417.551 58.2659L415.823 51.6419L410.985 52.904L406.147 54.1661L407.875 60.7901L412.713 59.528ZM410.985 52.904V47.904H393.609V52.904V57.904H410.985V52.904ZM393.609 52.904L388.778 51.6157C388.259 53.5623 387.74 55.5716 387.222 57.6433L392.073 58.856L396.924 60.0687C397.43 58.0444 397.935 56.0857 398.44 54.1923L393.609 52.904ZM392.073 58.856L387.222 57.6433C386.716 59.6676 386.211 61.6263 385.706 63.5197L390.537 64.808L395.368 66.0963C395.887 64.1497 396.406 62.1404 396.924 60.0687L392.073 58.856ZM390.537 64.808L388.855 60.0993C388.229 60.323 387.525 60.5136 386.735 60.6616L387.657 65.576L388.578 70.4904C389.837 70.2544 391.053 69.933 392.219 69.5167L390.537 64.808ZM387.657 65.576L386.369 60.7448C385.963 60.853 385.243 60.96 384.105 60.96V65.96V70.96C385.783 70.96 387.431 70.811 388.945 70.4072L387.657 65.576ZM384.105 65.96V60.96C381.227 60.96 379.996 60.4491 379.62 60.1934L376.809 64.328L373.997 68.4626C376.821 70.3829 380.455 70.96 384.105 70.96V65.96ZM376.809 64.328L379.809 60.328C379.609 60.178 379.574 60.0945 379.571 60.0887C379.566 60.0773 379.505 59.958 379.505 59.624H374.505H369.505C369.505 63.1202 370.965 66.1954 373.809 68.328L376.809 64.328ZM374.505 59.624H379.505C379.505 59.2109 379.563 58.7769 379.697 58.3096L374.889 56.936L370.081 55.5624C369.703 56.8871 369.505 58.2451 369.505 59.624H374.505ZM374.889 56.936L379.697 58.3096C379.965 57.3707 380.262 56.2795 380.588 55.0405L375.753 53.768L370.918 52.4955C370.604 53.6885 370.325 54.7093 370.081 55.5624L374.889 56.936ZM375.753 53.768L380.593 55.0228C381.019 53.3776 381.608 51.2988 382.366 48.7727L377.577 47.336L372.788 45.8993C372.01 48.4932 371.382 50.7024 370.913 52.5132L375.753 53.768ZM377.577 47.336L382.332 48.8814C383.163 46.3232 384.059 43.5728 385.019 40.6301L380.265 39.08L375.511 37.5299C374.551 40.4752 373.654 43.2288 372.822 45.7906L377.577 47.336ZM380.265 39.08L385.028 40.6002C385.975 37.6339 386.986 34.6015 388.061 31.5029L383.337 29.864L378.613 28.2251C377.512 31.3985 376.475 34.5101 375.502 37.5598L380.265 39.08ZM383.337 29.864L388.061 31.5029C389.148 28.3692 390.171 25.4279 391.13 22.6789L386.409 21.032L381.688 19.3851C380.727 22.1401 379.702 25.0868 378.613 28.2251L383.337 29.864ZM386.409 21.032L391.141 22.6454C392.097 19.8418 392.955 17.3632 393.716 15.2081L389.001 13.544L384.286 11.8799C383.511 14.0768 382.641 16.5902 381.676 19.4186L386.409 21.032ZM389.001 13.544L393.671 15.3297C394.502 13.1563 395.138 11.5028 395.581 10.3642L390.921 8.552L386.261 6.73977C385.808 7.90519 385.164 9.57972 384.331 11.7583L389.001 13.544ZM402.441 20.936L397.697 19.3549C396.809 22.021 395.791 25.0104 394.644 28.3244L399.369 29.96L404.094 31.5956C405.251 28.2536 406.281 25.227 407.184 22.5171L402.441 20.936ZM399.369 29.96L394.625 28.3789C393.503 31.7452 392.481 35.1747 391.559 38.667L396.393 39.944L401.227 41.221C402.097 37.9293 403.058 34.7028 404.112 31.5411L399.369 29.96ZM396.393 39.944V44.944H408.297V39.944V34.944H396.393V39.944ZM408.297 39.944L413.137 38.6892C412.228 35.1835 411.286 31.7714 410.31 28.4532L405.513 29.864L400.716 31.2748C401.66 34.4846 402.574 37.7925 403.457 41.1988L408.297 39.944ZM405.513 29.864L410.341 28.5641C409.438 25.2097 408.596 22.1978 407.816 19.5315L403.017 20.936L398.218 22.3405C398.974 24.9222 399.796 27.8623 400.685 31.1639L405.513 29.864ZM403.017 20.936V15.936H402.441V20.936V25.936H403.017V20.936Z" fill="#D8B093" mask="url(#path-1-outside-1_17_69)"/>
</svg>
