<svg width="1358" height="521" viewBox="0 0 1358 521" fill="none" xmlns="http://www.w3.org/2000/svg">
<rect width="1358" height="521" fill="#F5F5F5"/>
<path d="M0 190.454V0H1358V190.454C1301 111.478 1233.26 118.177 1212.05 190.454C1190.84 262.732 1258.01 401.484 1212.05 461.1C1166.09 520.716 1101.95 511.22 1058.52 461.1C1015.09 410.981 1097.41 289.638 1058.52 217.361C1019.64 145.083 933.278 146.138 890.856 217.361C848.434 288.583 929.238 285.418 890.856 358.223C852.474 431.028 725.714 425.225 671.677 358.223C617.64 291.221 715.614 148.248 671.677 83.8844C627.74 19.5203 471.184 23.7409 419.672 83.8844C368.16 144.028 462.599 399.374 419.672 461.1C376.745 522.826 248.975 521.771 182.312 461.1C115.65 400.429 232.814 217.361 182.312 190.454C131.81 163.548 65.6304 272.69 0 190.454Z" fill="#E826C8" stroke="#E826C8"/>
<path d="M0 152.312V-28H1358V152.312C1301 77.5417 1233.26 83.8833 1212.05 152.312C1190.84 220.74 1258.01 352.103 1212.05 408.545C1166.09 464.986 1101.95 455.995 1058.52 408.545C1015.09 361.094 1097.41 246.214 1058.52 177.785C1019.64 109.357 933.278 110.356 890.856 177.785C848.434 245.215 929.238 242.218 890.856 311.146C852.474 380.074 725.714 374.58 671.677 311.146C617.64 247.712 715.614 112.354 671.677 51.4171C627.74 -9.51928 471.184 -5.52345 419.672 51.4171C368.16 108.358 462.599 350.105 419.672 408.545C376.745 466.984 248.975 465.985 182.312 408.545C115.65 351.104 232.814 177.785 182.312 152.312C131.81 126.838 65.6304 230.168 0 152.312Z" fill="#79DCEE" stroke="#79DCEE"/>
</svg>
