<svg width="260" height="260" viewBox="0 0 260 260" fill="none" xmlns="http://www.w3.org/2000/svg">
<circle cx="130" cy="130" r="127.5" fill="#E2E9F5" stroke="#D8B093" stroke-width="5"/>
<circle cx="130" cy="130" r="108.5" fill="#E2E9F5" stroke="#D8B093" stroke-width="3"/>
<path d="M77.2812 195.535C77.2812 195.23 77.2344 194.957 77.1406 194.715C77.0547 194.465 76.8906 194.238 76.6484 194.035C76.4062 193.824 76.0664 193.617 75.6289 193.414C75.1914 193.211 74.625 193 73.9297 192.781C73.1562 192.531 72.4219 192.25 71.7266 191.938C71.0391 191.625 70.4297 191.262 69.8984 190.848C69.375 190.426 68.9609 189.938 68.6562 189.383C68.3594 188.828 68.2109 188.184 68.2109 187.449C68.2109 186.738 68.3672 186.094 68.6797 185.516C68.9922 184.93 69.4297 184.43 69.9922 184.016C70.5547 183.594 71.2188 183.27 71.9844 183.043C72.7578 182.816 73.6055 182.703 74.5273 182.703C75.7852 182.703 76.8828 182.93 77.8203 183.383C78.7578 183.836 79.4844 184.457 80 185.246C80.5234 186.035 80.7852 186.938 80.7852 187.953H77.293C77.293 187.453 77.1875 187.016 76.9766 186.641C76.7734 186.258 76.4609 185.957 76.0391 185.738C75.625 185.52 75.1016 185.41 74.4688 185.41C73.8594 185.41 73.3516 185.504 72.9453 185.691C72.5391 185.871 72.2344 186.117 72.0312 186.43C71.8281 186.734 71.7266 187.078 71.7266 187.461C71.7266 187.75 71.7969 188.012 71.9375 188.246C72.0859 188.48 72.3047 188.699 72.5938 188.902C72.8828 189.105 73.2383 189.297 73.6602 189.477C74.082 189.656 74.5703 189.832 75.125 190.004C76.0547 190.285 76.8711 190.602 77.5742 190.953C78.2852 191.305 78.8789 191.699 79.3555 192.137C79.832 192.574 80.1914 193.07 80.4336 193.625C80.6758 194.18 80.7969 194.809 80.7969 195.512C80.7969 196.254 80.6523 196.918 80.3633 197.504C80.0742 198.09 79.6562 198.586 79.1094 198.992C78.5625 199.398 77.9102 199.707 77.1523 199.918C76.3945 200.129 75.5469 200.234 74.6094 200.234C73.7656 200.234 72.9336 200.125 72.1133 199.906C71.293 199.68 70.5469 199.34 69.875 198.887C69.2109 198.434 68.6797 197.855 68.2812 197.152C67.8828 196.449 67.6836 195.617 67.6836 194.656H71.2109C71.2109 195.188 71.293 195.637 71.457 196.004C71.6211 196.371 71.8516 196.668 72.1484 196.895C72.4531 197.121 72.8125 197.285 73.2266 197.387C73.6484 197.488 74.1094 197.539 74.6094 197.539C75.2188 197.539 75.7188 197.453 76.1094 197.281C76.5078 197.109 76.8008 196.871 76.9883 196.566C77.1836 196.262 77.2812 195.918 77.2812 195.535ZM89.832 193.918H85.4844V191.176H89.832C90.5039 191.176 91.0508 191.066 91.4727 190.848C91.8945 190.621 92.2031 190.309 92.3984 189.91C92.5938 189.512 92.6914 189.062 92.6914 188.562C92.6914 188.055 92.5938 187.582 92.3984 187.145C92.2031 186.707 91.8945 186.355 91.4727 186.09C91.0508 185.824 90.5039 185.691 89.832 185.691H86.7031V200H83.1875V182.938H89.832C91.168 182.938 92.3125 183.18 93.2656 183.664C94.2266 184.141 94.9609 184.801 95.4688 185.645C95.9766 186.488 96.2305 187.453 96.2305 188.539C96.2305 189.641 95.9766 190.594 95.4688 191.398C94.9609 192.203 94.2266 192.824 93.2656 193.262C92.3125 193.699 91.168 193.918 89.832 193.918ZM112.672 191.07V191.879C112.672 193.176 112.496 194.34 112.145 195.371C111.793 196.402 111.297 197.281 110.656 198.008C110.016 198.727 109.25 199.277 108.359 199.66C107.477 200.043 106.496 200.234 105.418 200.234C104.348 200.234 103.367 200.043 102.477 199.66C101.594 199.277 100.828 198.727 100.18 198.008C99.5312 197.281 99.0273 196.402 98.668 195.371C98.3164 194.34 98.1406 193.176 98.1406 191.879V191.07C98.1406 189.766 98.3164 188.602 98.668 187.578C99.0195 186.547 99.5156 185.668 100.156 184.941C100.805 184.215 101.57 183.66 102.453 183.277C103.344 182.895 104.324 182.703 105.395 182.703C106.473 182.703 107.453 182.895 108.336 183.277C109.227 183.66 109.992 184.215 110.633 184.941C111.281 185.668 111.781 186.547 112.133 187.578C112.492 188.602 112.672 189.766 112.672 191.07ZM109.121 191.879V191.047C109.121 190.141 109.039 189.344 108.875 188.656C108.711 187.969 108.469 187.391 108.148 186.922C107.828 186.453 107.438 186.102 106.977 185.867C106.516 185.625 105.988 185.504 105.395 185.504C104.801 185.504 104.273 185.625 103.812 185.867C103.359 186.102 102.973 186.453 102.652 186.922C102.34 187.391 102.102 187.969 101.938 188.656C101.773 189.344 101.691 190.141 101.691 191.047V191.879C101.691 192.777 101.773 193.574 101.938 194.27C102.102 194.957 102.344 195.539 102.664 196.016C102.984 196.484 103.375 196.84 103.836 197.082C104.297 197.324 104.824 197.445 105.418 197.445C106.012 197.445 106.539 197.324 107 197.082C107.461 196.84 107.848 196.484 108.16 196.016C108.473 195.539 108.711 194.957 108.875 194.27C109.039 193.574 109.121 192.777 109.121 191.879ZM129.09 182.938V200H125.574L118.719 188.562V200H115.203V182.938H118.719L125.586 194.387V182.938H129.09ZM141.031 195.535C141.031 195.23 140.984 194.957 140.891 194.715C140.805 194.465 140.641 194.238 140.398 194.035C140.156 193.824 139.816 193.617 139.379 193.414C138.941 193.211 138.375 193 137.68 192.781C136.906 192.531 136.172 192.25 135.477 191.938C134.789 191.625 134.18 191.262 133.648 190.848C133.125 190.426 132.711 189.938 132.406 189.383C132.109 188.828 131.961 188.184 131.961 187.449C131.961 186.738 132.117 186.094 132.43 185.516C132.742 184.93 133.18 184.43 133.742 184.016C134.305 183.594 134.969 183.27 135.734 183.043C136.508 182.816 137.355 182.703 138.277 182.703C139.535 182.703 140.633 182.93 141.57 183.383C142.508 183.836 143.234 184.457 143.75 185.246C144.273 186.035 144.535 186.938 144.535 187.953H141.043C141.043 187.453 140.938 187.016 140.727 186.641C140.523 186.258 140.211 185.957 139.789 185.738C139.375 185.52 138.852 185.41 138.219 185.41C137.609 185.41 137.102 185.504 136.695 185.691C136.289 185.871 135.984 186.117 135.781 186.43C135.578 186.734 135.477 187.078 135.477 187.461C135.477 187.75 135.547 188.012 135.688 188.246C135.836 188.48 136.055 188.699 136.344 188.902C136.633 189.105 136.988 189.297 137.41 189.477C137.832 189.656 138.32 189.832 138.875 190.004C139.805 190.285 140.621 190.602 141.324 190.953C142.035 191.305 142.629 191.699 143.105 192.137C143.582 192.574 143.941 193.07 144.184 193.625C144.426 194.18 144.547 194.809 144.547 195.512C144.547 196.254 144.402 196.918 144.113 197.504C143.824 198.09 143.406 198.586 142.859 198.992C142.312 199.398 141.66 199.707 140.902 199.918C140.145 200.129 139.297 200.234 138.359 200.234C137.516 200.234 136.684 200.125 135.863 199.906C135.043 199.68 134.297 199.34 133.625 198.887C132.961 198.434 132.43 197.855 132.031 197.152C131.633 196.449 131.434 195.617 131.434 194.656H134.961C134.961 195.188 135.043 195.637 135.207 196.004C135.371 196.371 135.602 196.668 135.898 196.895C136.203 197.121 136.562 197.285 136.977 197.387C137.398 197.488 137.859 197.539 138.359 197.539C138.969 197.539 139.469 197.453 139.859 197.281C140.258 197.109 140.551 196.871 140.738 196.566C140.934 196.262 141.031 195.918 141.031 195.535ZM160.953 191.07V191.879C160.953 193.176 160.777 194.34 160.426 195.371C160.074 196.402 159.578 197.281 158.938 198.008C158.297 198.727 157.531 199.277 156.641 199.66C155.758 200.043 154.777 200.234 153.699 200.234C152.629 200.234 151.648 200.043 150.758 199.66C149.875 199.277 149.109 198.727 148.461 198.008C147.812 197.281 147.309 196.402 146.949 195.371C146.598 194.34 146.422 193.176 146.422 191.879V191.07C146.422 189.766 146.598 188.602 146.949 187.578C147.301 186.547 147.797 185.668 148.438 184.941C149.086 184.215 149.852 183.66 150.734 183.277C151.625 182.895 152.605 182.703 153.676 182.703C154.754 182.703 155.734 182.895 156.617 183.277C157.508 183.66 158.273 184.215 158.914 184.941C159.562 185.668 160.062 186.547 160.414 187.578C160.773 188.602 160.953 189.766 160.953 191.07ZM157.402 191.879V191.047C157.402 190.141 157.32 189.344 157.156 188.656C156.992 187.969 156.75 187.391 156.43 186.922C156.109 186.453 155.719 186.102 155.258 185.867C154.797 185.625 154.27 185.504 153.676 185.504C153.082 185.504 152.555 185.625 152.094 185.867C151.641 186.102 151.254 186.453 150.934 186.922C150.621 187.391 150.383 187.969 150.219 188.656C150.055 189.344 149.973 190.141 149.973 191.047V191.879C149.973 192.777 150.055 193.574 150.219 194.27C150.383 194.957 150.625 195.539 150.945 196.016C151.266 196.484 151.656 196.84 152.117 197.082C152.578 197.324 153.105 197.445 153.699 197.445C154.293 197.445 154.82 197.324 155.281 197.082C155.742 196.84 156.129 196.484 156.441 196.016C156.754 195.539 156.992 194.957 157.156 194.27C157.32 193.574 157.402 192.777 157.402 191.879ZM163.484 182.938H169.848C171.152 182.938 172.273 183.133 173.211 183.523C174.156 183.914 174.883 184.492 175.391 185.258C175.898 186.023 176.152 186.965 176.152 188.082C176.152 188.996 175.996 189.781 175.684 190.438C175.379 191.086 174.945 191.629 174.383 192.066C173.828 192.496 173.176 192.84 172.426 193.098L171.312 193.684H165.781L165.758 190.941H169.871C170.488 190.941 171 190.832 171.406 190.613C171.812 190.395 172.117 190.09 172.32 189.699C172.531 189.309 172.637 188.855 172.637 188.34C172.637 187.793 172.535 187.32 172.332 186.922C172.129 186.523 171.82 186.219 171.406 186.008C170.992 185.797 170.473 185.691 169.848 185.691H167V200H163.484V182.938ZM173.023 200L169.133 192.395L172.848 192.371L176.785 199.836V200H173.023ZM187.742 195.535C187.742 195.23 187.695 194.957 187.602 194.715C187.516 194.465 187.352 194.238 187.109 194.035C186.867 193.824 186.527 193.617 186.09 193.414C185.652 193.211 185.086 193 184.391 192.781C183.617 192.531 182.883 192.25 182.188 191.938C181.5 191.625 180.891 191.262 180.359 190.848C179.836 190.426 179.422 189.938 179.117 189.383C178.82 188.828 178.672 188.184 178.672 187.449C178.672 186.738 178.828 186.094 179.141 185.516C179.453 184.93 179.891 184.43 180.453 184.016C181.016 183.594 181.68 183.27 182.445 183.043C183.219 182.816 184.066 182.703 184.988 182.703C186.246 182.703 187.344 182.93 188.281 183.383C189.219 183.836 189.945 184.457 190.461 185.246C190.984 186.035 191.246 186.938 191.246 187.953H187.754C187.754 187.453 187.648 187.016 187.438 186.641C187.234 186.258 186.922 185.957 186.5 185.738C186.086 185.52 185.562 185.41 184.93 185.41C184.32 185.41 183.812 185.504 183.406 185.691C183 185.871 182.695 186.117 182.492 186.43C182.289 186.734 182.188 187.078 182.188 187.461C182.188 187.75 182.258 188.012 182.398 188.246C182.547 188.48 182.766 188.699 183.055 188.902C183.344 189.105 183.699 189.297 184.121 189.477C184.543 189.656 185.031 189.832 185.586 190.004C186.516 190.285 187.332 190.602 188.035 190.953C188.746 191.305 189.34 191.699 189.816 192.137C190.293 192.574 190.652 193.07 190.895 193.625C191.137 194.18 191.258 194.809 191.258 195.512C191.258 196.254 191.113 196.918 190.824 197.504C190.535 198.09 190.117 198.586 189.57 198.992C189.023 199.398 188.371 199.707 187.613 199.918C186.855 200.129 186.008 200.234 185.07 200.234C184.227 200.234 183.395 200.125 182.574 199.906C181.754 199.68 181.008 199.34 180.336 198.887C179.672 198.434 179.141 197.855 178.742 197.152C178.344 196.449 178.145 195.617 178.145 194.656H181.672C181.672 195.188 181.754 195.637 181.918 196.004C182.082 196.371 182.312 196.668 182.609 196.895C182.914 197.121 183.273 197.285 183.688 197.387C184.109 197.488 184.57 197.539 185.07 197.539C185.68 197.539 186.18 197.453 186.57 197.281C186.969 197.109 187.262 196.871 187.449 196.566C187.645 196.262 187.742 195.918 187.742 195.535Z" fill="#58C7DB"/>
<path d="M180.096 112.405L156.564 88.8713L156.583 88.8892C157.242 86.4517 157.625 83.8972 157.625 81.25C157.625 65.0975 144.529 52 128.375 52C125.673 52 123.068 52.3965 120.586 53.0823C119.53 52.3835 118.285 52 117 52H84.5C80.9104 52 78 54.9104 78 58.5V91C78 92.7242 78.6858 94.3768 79.9045 95.5955L138.405 154.096C139.672 155.365 141.338 156 143 156C144.662 156 146.328 155.365 147.596 154.096L180.096 121.596C182.635 119.059 182.635 114.941 180.096 112.405ZM128.375 55.2516C142.735 55.2516 154.375 66.8915 154.375 81.2516C154.375 82.8815 154.185 84.6446 153.896 86.2047L151.019 83.3284L150.98 83.2878C151.042 82.6394 151.125 81.8724 151.125 81.2516C151.125 68.6888 140.94 58.5016 128.375 58.5016C127.673 58.5016 126.984 58.5439 126.298 58.6056C124.966 58.7259 123.672 58.9761 122.413 59.3174C116.685 60.8693 111.867 64.597 108.882 69.5679C108.321 70.499 107.809 71.461 107.385 72.4734C106.254 75.1758 105.625 78.1398 105.625 81.2516C105.625 82.2543 105.838 84.2043 105.838 84.2043C105.838 84.2043 104.644 84.5 104 84.5C103.508 84.5 103.033 84.435 102.573 84.331C102.512 84.318 102.52 84.318 102.573 84.331C102.455 83.3186 102.375 82.2965 102.375 81.2516C102.375 77.8099 103.059 74.5339 104.273 71.5293C104.709 70.4535 105.211 69.4184 105.779 68.4206C108.865 62.998 113.844 58.8088 119.819 56.7239C120.989 56.3144 122.189 55.9748 123.429 55.7375C125.029 55.4255 126.682 55.2516 128.375 55.2516ZM147.818 80.1271L129.5 61.8085C139.368 62.3724 147.253 70.2569 147.818 80.1271ZM110.5 78C110.5 79.6104 109.897 81.0631 108.922 82.1909C108.909 81.8789 108.875 81.5701 108.875 81.2516C108.875 79.1375 109.221 77.1079 109.844 75.2001C110.253 76.0516 110.5 76.9941 110.5 78ZM99.125 81.25C99.125 81.5929 99.1608 81.9293 99.1754 82.2689C98.1533 81.1265 97.5 79.6543 97.5 78C97.5 75.7299 98.67 73.7344 100.435 72.5725C99.5833 75.3155 99.125 78.2291 99.125 81.25ZM177.798 119.298L145.296 151.798C144.684 152.412 143.868 152.75 143 152.75C142.132 152.75 141.317 152.412 140.702 151.798L82.2023 93.2978C81.5978 92.6917 81.25 91.8532 81.25 91V58.5C81.25 56.706 82.7076 55.25 84.5 55.25H115.014C109.415 58.1344 104.882 62.7689 102.112 68.4369C97.6316 69.316 94.25 73.2615 94.25 78C94.25 83.3836 98.6164 87.75 104 87.75C109.384 87.75 113.75 83.3836 113.75 78C113.75 75.582 112.864 73.372 111.405 71.669C114.246 66.651 119.241 63.0305 125.138 62.0425L177.798 114.702C178.412 115.317 178.75 116.132 178.75 117C178.75 117.868 178.412 118.684 177.798 119.298Z" fill="#58C7DB"/>
<path d="M159.448 113.555C157.547 111.654 154.455 111.652 152.553 113.553L139.579 126.527C137.68 128.427 137.61 131.591 139.511 133.492C141.409 135.393 144.562 135.335 146.463 133.434L159.45 120.45H159.447C161.348 118.549 161.348 115.455 159.448 113.555ZM157.149 118.152L144.214 131.087C143.579 131.722 142.439 131.83 141.809 131.194C141.174 130.559 141.256 129.449 141.892 128.814L154.853 115.853C155.488 115.217 156.515 115.217 157.151 115.853C157.784 116.486 157.784 117.517 157.149 118.152Z" fill="#58C7DB"/>
<path d="M146.448 107.452C148.35 105.55 148.35 102.456 146.45 100.557C144.549 98.6554 141.456 98.6538 139.555 100.555L126.581 113.529C124.681 115.429 124.612 118.593 126.513 120.494C128.411 122.395 131.563 122.337 133.465 120.435L146.452 107.452H146.448ZM144.151 105.154L131.216 118.089C130.58 118.724 129.441 118.831 128.811 118.196C128.175 117.561 128.258 116.451 128.893 115.815L141.854 102.854C142.49 102.219 143.517 102.219 144.152 102.854C144.786 103.488 144.786 104.518 144.151 105.154Z" fill="#58C7DB"/>
<path d="M133.442 94.4449C135.343 92.5437 135.343 89.4497 133.443 87.55C131.542 85.6488 128.45 85.6472 126.549 87.5484L113.575 100.522C111.675 102.422 111.605 105.586 113.506 107.487C115.404 109.388 118.557 109.33 120.458 107.429L133.445 94.4449H133.442ZM131.144 92.1472L118.209 105.082C117.574 105.718 116.435 105.825 115.804 105.189C115.169 104.554 115.252 103.444 115.887 102.809L128.848 89.8478C129.483 89.2124 130.51 89.2124 131.146 89.8478C131.779 90.4815 131.779 91.5118 131.144 92.1472Z" fill="#58C7DB"/>
</svg>
