<svg width="1358" height="526" viewBox="0 0 1358 526" fill="none" xmlns="http://www.w3.org/2000/svg">
<path d="M0 196.454V6H1358V196.454C1301 117.478 1233.26 124.177 1212.05 196.454C1190.84 268.732 1258.01 407.484 1212.05 467.1C1166.09 526.716 1101.95 517.22 1058.52 467.1C1015.09 416.981 1097.41 295.638 1058.52 223.361C1019.64 151.083 933.278 152.138 890.856 223.361C848.434 294.583 929.238 291.418 890.856 364.223C852.474 437.028 725.714 431.225 671.677 364.223C617.64 297.221 715.614 154.248 671.677 89.8844C627.74 25.5203 471.184 29.7409 419.672 89.8844C368.16 150.028 462.599 405.374 419.672 467.1C376.745 528.826 248.975 527.771 182.312 467.1C115.65 406.429 232.814 223.361 182.312 196.454C131.81 169.548 65.6304 278.69 0 196.454Z" fill="#E826C8" stroke="#E826C8"/>
<path d="M0 158.312V-22H1358V158.312C1301 83.5417 1233.26 89.8833 1212.05 158.312C1190.84 226.74 1258.01 358.103 1212.05 414.545C1166.09 470.986 1101.95 461.995 1058.52 414.545C1015.09 367.094 1097.41 252.214 1058.52 183.785C1019.64 115.357 933.278 116.356 890.856 183.785C848.434 251.215 929.238 248.218 890.856 317.146C852.474 386.074 725.714 380.58 671.677 317.146C617.64 253.712 715.614 118.354 671.677 57.4171C627.74 -3.51928 471.184 0.476549 419.672 57.4171C368.16 114.358 462.599 356.105 419.672 414.545C376.745 472.984 248.975 471.985 182.312 414.545C115.65 357.104 232.814 183.785 182.312 158.312C131.81 132.838 65.6304 236.168 0 158.312Z" fill="#79DCEE" stroke="#79DCEE"/>
</svg>
