<svg width="1920" height="624" viewBox="0 0 1920 624" fill="none" xmlns="http://www.w3.org/2000/svg">
<path d="M1917 -429L0 -834V233C49.8825 246.806 51.5 205 101 233C150.5 261 30.5 456.5 101 522.5C171.5 588.5 282.5 588.5 346 522.5C409.5 456.5 294.5 306 346 193C397.5 80 605.5 99 650 193C694.5 287 574.5 374 650 456.5C725.5 539 861.5 541 913.5 456.5C965.5 372 878.5 388.5 913.5 287C948.5 185.5 1140 169 1170.5 287C1201 405 1088 428 1170.5 539C1253 650 1330.5 654.5 1396.5 539C1462.5 423.5 1340 221.5 1396.5 127C1453 32.5 1613.5 21 1651 127C1688.5 233 1601.5 287.5 1651 372C1700.5 456.5 1917 372 1917 372V-429Z" fill="#E826C8" stroke="#E826C8" stroke-width="3"/>
<path d="M1920 -482.985L0 -888V179.04C49.9605 192.846 51.5806 151.039 101.158 179.04C150.736 207.041 30.5477 402.548 101.158 468.55C171.768 534.553 282.942 534.553 346.541 468.55C410.141 402.548 294.961 252.042 346.541 139.038C398.122 26.0339 606.448 45.0346 651.017 139.038C695.587 233.042 575.399 320.045 651.017 402.548C726.635 485.051 862.848 487.051 914.93 402.548C967.011 318.045 879.875 334.545 914.93 233.042C949.984 131.538 1141.78 115.037 1172.33 233.042C1202.88 351.046 1089.7 374.047 1172.33 485.051C1254.96 596.055 1332.58 600.555 1398.69 485.051C1464.79 369.547 1342.1 167.539 1398.69 73.0356C1455.27 -21.4679 1616.03 -32.9683 1653.58 73.0356C1691.14 179.04 1604.01 233.542 1653.58 318.045C1703.16 402.548 1920 318.045 1920 318.045V-482.985Z" fill="#79DCEE" stroke="#79DCEE" stroke-width="3"/>
</svg>
