<svg width="1920" height="412" viewBox="0 0 1920 412" fill="none" xmlns="http://www.w3.org/2000/svg">
<path d="M1917 459L0 54V1121C49.8825 1134.81 51.5 1093 101 1121C150.5 1149 30.5 1344.5 101 1410.5C171.5 1476.5 282.5 1476.5 346 1410.5C409.5 1344.5 294.5 1194 346 1081C397.5 968 605.5 987 650 1081C694.5 1175 574.5 1262 650 1344.5C725.5 1427 861.5 1429 913.5 1344.5C965.5 1260 878.5 1276.5 913.5 1175C948.5 1073.5 1140 1057 1170.5 1175C1201 1293 1088 1316 1170.5 1427C1253 1538 1330.5 1542.5 1396.5 1427C1462.5 1311.5 1340 1109.5 1396.5 1015C1453 920.5 1613.5 909 1651 1015C1688.5 1121 1601.5 1175.5 1651 1260C1700.5 1344.5 1917 1260 1917 1260V459Z" fill="#E826C8" stroke="#E826C8" stroke-width="3"/>
<path d="M1920 405.015L0 0V1067.04C49.9605 1080.85 51.5806 1039.04 101.158 1067.04C150.736 1095.04 30.5477 1290.55 101.158 1356.55C171.768 1422.55 282.942 1422.55 346.541 1356.55C410.141 1290.55 294.961 1140.04 346.541 1027.04C398.122 914.034 606.448 933.035 651.017 1027.04C695.587 1121.04 575.399 1208.04 651.017 1290.55C726.635 1373.05 862.848 1375.05 914.93 1290.55C967.011 1206.04 879.875 1222.55 914.93 1121.04C949.984 1019.54 1141.78 1003.04 1172.33 1121.04C1202.88 1239.05 1089.7 1262.05 1172.33 1373.05C1254.96 1484.06 1332.58 1488.56 1398.69 1373.05C1464.79 1257.55 1342.1 1055.54 1398.69 961.036C1455.27 866.532 1616.03 855.032 1653.58 961.036C1691.14 1067.04 1604.01 1121.54 1653.58 1206.04C1703.16 1290.55 1920 1206.04 1920 1206.04V405.015Z" fill="#79DCEE" stroke="#79DCEE" stroke-width="3"/>
</svg>
