<svg width="260" height="260" viewBox="0 0 260 260" fill="none" xmlns="http://www.w3.org/2000/svg">
<circle cx="130" cy="130" r="127.5" fill="#E2E9F5" stroke="#D8B093" stroke-width="5"/>
<circle cx="130" cy="130" r="108.5" fill="#58C7DB" stroke="#D8B093" stroke-width="3"/>
<path d="M86.6094 195.248H90.1133C90.043 196.396 89.7266 197.416 89.1641 198.307C88.6094 199.197 87.832 199.893 86.832 200.393C85.8398 200.893 84.6445 201.143 83.2461 201.143C82.1523 201.143 81.1719 200.955 80.3047 200.58C79.4375 200.197 78.6953 199.65 78.0781 198.939C77.4688 198.229 77.0039 197.369 76.6836 196.361C76.3633 195.354 76.2031 194.225 76.2031 192.975V191.791C76.2031 190.541 76.3672 189.412 76.6953 188.404C77.0312 187.389 77.5078 186.525 78.125 185.814C78.75 185.104 79.4961 184.557 80.3633 184.174C81.2305 183.791 82.1992 183.6 83.2695 183.6C84.6914 183.6 85.8906 183.857 86.8672 184.373C87.8516 184.889 88.6133 185.6 89.1523 186.506C89.6992 187.412 90.0273 188.443 90.1367 189.6H86.6211C86.582 188.912 86.4453 188.33 86.2109 187.854C85.9766 187.369 85.6211 187.006 85.1445 186.764C84.6758 186.514 84.0508 186.389 83.2695 186.389C82.6836 186.389 82.1719 186.498 81.7344 186.717C81.2969 186.936 80.9297 187.268 80.6328 187.713C80.3359 188.158 80.1133 188.721 79.9648 189.4C79.8242 190.072 79.7539 190.861 79.7539 191.768V192.975C79.7539 193.857 79.8203 194.635 79.9531 195.307C80.0859 195.971 80.2891 196.533 80.5625 196.994C80.8438 197.447 81.2031 197.791 81.6406 198.025C82.0859 198.252 82.6211 198.365 83.2461 198.365C83.9805 198.365 84.5859 198.248 85.0625 198.014C85.5391 197.779 85.9023 197.432 86.1523 196.971C86.4102 196.51 86.5625 195.936 86.6094 195.248ZM106.438 191.979V192.787C106.438 194.084 106.262 195.248 105.91 196.279C105.559 197.311 105.062 198.189 104.422 198.916C103.781 199.635 103.016 200.186 102.125 200.568C101.242 200.951 100.262 201.143 99.1836 201.143C98.1133 201.143 97.1328 200.951 96.2422 200.568C95.3594 200.186 94.5938 199.635 93.9453 198.916C93.2969 198.189 92.793 197.311 92.4336 196.279C92.082 195.248 91.9062 194.084 91.9062 192.787V191.979C91.9062 190.674 92.082 189.51 92.4336 188.486C92.7852 187.455 93.2812 186.576 93.9219 185.85C94.5703 185.123 95.3359 184.568 96.2188 184.186C97.1094 183.803 98.0898 183.611 99.1602 183.611C100.238 183.611 101.219 183.803 102.102 184.186C102.992 184.568 103.758 185.123 104.398 185.85C105.047 186.576 105.547 187.455 105.898 188.486C106.258 189.51 106.438 190.674 106.438 191.979ZM102.887 192.787V191.955C102.887 191.049 102.805 190.252 102.641 189.564C102.477 188.877 102.234 188.299 101.914 187.83C101.594 187.361 101.203 187.01 100.742 186.775C100.281 186.533 99.7539 186.412 99.1602 186.412C98.5664 186.412 98.0391 186.533 97.5781 186.775C97.125 187.01 96.7383 187.361 96.418 187.83C96.1055 188.299 95.8672 188.877 95.7031 189.564C95.5391 190.252 95.457 191.049 95.457 191.955V192.787C95.457 193.686 95.5391 194.482 95.7031 195.178C95.8672 195.865 96.1094 196.447 96.4297 196.924C96.75 197.393 97.1406 197.748 97.6016 197.99C98.0625 198.232 98.5898 198.354 99.1836 198.354C99.7773 198.354 100.305 198.232 100.766 197.99C101.227 197.748 101.613 197.393 101.926 196.924C102.238 196.447 102.477 195.865 102.641 195.178C102.805 194.482 102.887 193.686 102.887 192.787ZM122.855 183.846V200.908H119.34L112.484 189.471V200.908H108.969V183.846H112.484L119.352 195.295V183.846H122.855ZM133.191 183.846V200.908H129.688V183.846H133.191ZM138.441 183.846V186.6H124.52V183.846H138.441ZM146.117 186.764L141.477 200.908H137.738L144.078 183.846H146.457L146.117 186.764ZM149.973 200.908L145.32 186.764L144.945 183.846H147.348L153.723 200.908H149.973ZM149.762 194.557V197.311H140.75V194.557H149.762ZM164.984 195.248H168.488C168.418 196.396 168.102 197.416 167.539 198.307C166.984 199.197 166.207 199.893 165.207 200.393C164.215 200.893 163.02 201.143 161.621 201.143C160.527 201.143 159.547 200.955 158.68 200.58C157.812 200.197 157.07 199.65 156.453 198.939C155.844 198.229 155.379 197.369 155.059 196.361C154.738 195.354 154.578 194.225 154.578 192.975V191.791C154.578 190.541 154.742 189.412 155.07 188.404C155.406 187.389 155.883 186.525 156.5 185.814C157.125 185.104 157.871 184.557 158.738 184.174C159.605 183.791 160.574 183.6 161.645 183.6C163.066 183.6 164.266 183.857 165.242 184.373C166.227 184.889 166.988 185.6 167.527 186.506C168.074 187.412 168.402 188.443 168.512 189.6H164.996C164.957 188.912 164.82 188.33 164.586 187.854C164.352 187.369 163.996 187.006 163.52 186.764C163.051 186.514 162.426 186.389 161.645 186.389C161.059 186.389 160.547 186.498 160.109 186.717C159.672 186.936 159.305 187.268 159.008 187.713C158.711 188.158 158.488 188.721 158.34 189.4C158.199 190.072 158.129 190.861 158.129 191.768V192.975C158.129 193.857 158.195 194.635 158.328 195.307C158.461 195.971 158.664 196.533 158.938 196.994C159.219 197.447 159.578 197.791 160.016 198.025C160.461 198.252 160.996 198.365 161.621 198.365C162.355 198.365 162.961 198.248 163.438 198.014C163.914 197.779 164.277 197.432 164.527 196.971C164.785 196.51 164.938 195.936 164.984 195.248ZM178.074 183.846V200.908H174.57V183.846H178.074ZM183.324 183.846V186.6H169.402V183.846H183.324Z" fill="white"/>
<path d="M93.7158 68.2384H113.878C115.041 68.2313 116.166 68.6583 117.035 69.4376C117.85 70.1685 118.388 71.1614 118.558 72.2443L118.586 72.462C119.076 78.9587 120.672 85.3189 123.3 91.2657L123.839 92.4503C124.287 93.5147 124.333 94.7076 123.97 95.8048C123.605 96.9069 122.853 97.8356 121.855 98.4152L117.383 100.982C116.675 101.374 116.059 101.912 115.573 102.562C115.088 103.211 114.745 103.958 114.567 104.75C114.39 105.542 114.38 106.363 114.541 107.159C114.702 107.955 115.028 108.709 115.499 109.369V109.368C120.524 116.779 126.837 123.211 134.133 128.355L134.842 128.849C135.495 129.32 136.24 129.647 137.027 129.809C137.819 129.971 138.637 129.962 139.425 129.782C140.213 129.603 140.954 129.257 141.6 128.768C142.245 128.279 142.779 127.657 143.168 126.945L143.167 126.944L145.717 122.44L145.716 122.439C146.327 121.424 147.293 120.679 148.422 120.347C149.484 120.034 150.619 120.109 151.629 120.554L151.829 120.648L151.837 120.651C158.079 123.624 164.81 125.418 171.694 125.944C172.846 126.075 173.911 126.63 174.683 127.504C175.409 128.326 175.827 129.374 175.871 130.47L175.875 130.69V151.316C175.89 152.759 175.595 154.189 175.009 155.507C174.423 156.825 173.56 157.999 172.48 158.948C171.401 159.898 170.131 160.6 168.757 161.007C167.555 161.363 166.298 161.486 165.054 161.371L164.521 161.308L164.512 161.307L163.551 161.177C143.387 158.353 124.684 148.958 110.309 134.412C95.9327 119.867 86.688 100.985 83.9746 80.6603L83.8506 79.6915L83.8486 79.6808L83.7861 79.1447C83.6721 77.8933 83.793 76.63 84.1445 75.421C84.5463 74.0393 85.2395 72.7613 86.1768 71.6749C87.114 70.5886 88.2731 69.7191 89.5742 69.1261C90.7128 68.6072 91.9369 68.3108 93.1816 68.2501L93.7158 68.2384Z" fill="white" stroke="white"/>
<path d="M176.375 99.2154C176.375 90.8672 173.083 82.8609 167.222 76.9578C161.362 71.0547 153.413 67.7384 145.125 67.7384" stroke="white" stroke-width="2.4" stroke-linecap="round" stroke-linejoin="round"/>
<path d="M145.125 88.7233C147.888 88.7233 150.537 89.8287 152.491 91.7964C154.444 93.7641 155.542 96.4329 155.542 99.2156" stroke="white" stroke-width="2.4" stroke-linecap="round" stroke-linejoin="round"/>
<path d="M176.375 130.693V151.31C176.391 152.826 176.081 154.327 175.465 155.711C174.85 157.094 173.945 158.327 172.811 159.324C171.678 160.321 170.343 161.059 168.899 161.487C167.456 161.915 165.937 162.022 164.448 161.802C143.807 159.132 124.635 149.619 109.953 134.764C95.2709 119.909 85.9131 100.555 83.3543 79.7523C83.1367 78.2569 83.2424 76.7318 83.6642 75.2813C84.086 73.8308 84.8139 72.4893 85.7981 71.3485C86.7823 70.2076 87.9996 69.2944 89.3667 68.6714C90.7338 68.0483 92.2184 67.7301 93.7188 67.7386H113.875C115.163 67.7307 116.407 68.2035 117.369 69.0658C118.331 69.928 118.942 71.1186 119.083 72.4077C119.6 79.2832 121.366 86.0047 124.292 92.2382C124.794 93.4187 124.848 94.7436 124.445 95.9619C124.042 97.1802 123.209 98.2072 122.104 98.8484L117.625 101.419C116.979 101.777 116.417 102.268 115.973 102.861C115.53 103.454 115.217 104.135 115.055 104.859C114.892 105.583 114.884 106.334 115.031 107.061C115.178 107.788 115.476 108.476 115.906 109.078C121.059 116.681 127.577 123.247 135.125 128.437C135.723 128.87 136.406 129.171 137.128 129.318C137.85 129.466 138.595 129.458 139.314 129.294C140.033 129.131 140.709 128.815 141.297 128.369C141.886 127.923 142.374 127.356 142.729 126.706L145.281 122.194C145.956 121.067 147.026 120.236 148.281 119.867C149.535 119.497 150.881 119.617 152.052 120.2C158.241 123.148 164.914 124.926 171.74 125.446C173.019 125.589 174.201 126.204 175.057 127.173C175.913 128.142 176.383 129.396 176.375 130.693Z" stroke="white" stroke-width="2.4" stroke-linecap="round" stroke-linejoin="round"/>
</svg>
