<svg width="558" height="241" viewBox="0 0 558 241" fill="none" xmlns="http://www.w3.org/2000/svg">
<ellipse cx="143.952" cy="209.019" rx="32.5262" ry="31.1074" fill="#79DCEE"/>
<ellipse cx="255.291" cy="209.019" rx="32.5262" ry="31.1074" fill="#79DCEE"/>
<ellipse cx="366.631" cy="209.019" rx="32.5262" ry="31.1074" fill="#79DCEE"/>
<ellipse cx="477.97" cy="209.019" rx="32.5262" ry="31.1074" fill="#79DCEE"/>
<ellipse cx="32.6122" cy="209.019" rx="32.5262" ry="31.1074" fill="#79DCEE"/>
<ellipse cx="143.952" cy="120.141" rx="32.5262" ry="31.1074" fill="#79DCEE"/>
<ellipse cx="255.291" cy="120.14" rx="32.5262" ry="31.1074" fill="#79DCEE"/>
<ellipse cx="366.631" cy="120.14" rx="32.5262" ry="31.1074" fill="#79DCEE"/>
<ellipse cx="477.97" cy="120.14" rx="32.5262" ry="31.1074" fill="#79DCEE"/>
<ellipse cx="32.6123" cy="120.14" rx="32.5262" ry="31.1074" fill="#79DCEE"/>
<ellipse cx="143.952" cy="31.262" rx="32.5262" ry="31.1074" fill="#79DCEE"/>
<ellipse cx="255.291" cy="31.2622" rx="32.5262" ry="31.1074" fill="#79DCEE"/>
<ellipse cx="366.631" cy="31.262" rx="32.5262" ry="31.1074" fill="#79DCEE"/>
<ellipse cx="477.97" cy="31.2622" rx="32.5262" ry="31.1074" fill="#79DCEE"/>
<ellipse cx="32.6122" cy="31.2622" rx="32.5262" ry="31.1074" fill="#79DCEE"/>
</svg>
