<svg width="243" height="558" viewBox="0 0 243 558" fill="none" xmlns="http://www.w3.org/2000/svg">
<ellipse cx="210.655" cy="413.611" rx="32.5262" ry="31.1074" transform="rotate(-90.1237 210.655 413.611)" fill="#79DCEE"/>
<ellipse cx="210.414" cy="302.272" rx="32.5262" ry="31.1074" transform="rotate(-90.1237 210.414 302.272)" fill="#79DCEE"/>
<ellipse cx="210.174" cy="190.933" rx="32.5262" ry="31.1074" transform="rotate(-90.1237 210.174 190.933)" fill="#79DCEE"/>
<ellipse cx="209.934" cy="79.5933" rx="32.5262" ry="31.1074" transform="rotate(-90.1237 209.934 79.5933)" fill="#79DCEE"/>
<ellipse cx="210.895" cy="524.95" rx="32.5262" ry="31.1074" transform="rotate(-90.1237 210.895 524.95)" fill="#79DCEE"/>
<ellipse cx="121.777" cy="413.803" rx="32.5262" ry="31.1074" transform="rotate(-90.1237 121.777 413.803)" fill="#79DCEE"/>
<ellipse cx="121.536" cy="302.464" rx="32.5262" ry="31.1074" transform="rotate(-90.1237 121.536 302.464)" fill="#79DCEE"/>
<ellipse cx="121.296" cy="191.124" rx="32.5262" ry="31.1074" transform="rotate(-90.1237 121.296 191.124)" fill="#79DCEE"/>
<ellipse cx="121.056" cy="79.7852" rx="32.5262" ry="31.1074" transform="rotate(-90.1237 121.056 79.7852)" fill="#79DCEE"/>
<ellipse cx="122.017" cy="525.142" rx="32.5262" ry="31.1074" transform="rotate(-90.1237 122.017 525.142)" fill="#79DCEE"/>
<ellipse cx="32.8983" cy="413.995" rx="32.5262" ry="31.1074" transform="rotate(-90.1237 32.8983 413.995)" fill="#79DCEE"/>
<ellipse cx="32.6582" cy="302.656" rx="32.5262" ry="31.1074" transform="rotate(-90.1237 32.6582 302.656)" fill="#79DCEE"/>
<ellipse cx="32.4178" cy="191.316" rx="32.5262" ry="31.1074" transform="rotate(-90.1237 32.4178 191.316)" fill="#79DCEE"/>
<ellipse cx="32.1776" cy="79.9771" rx="32.5262" ry="31.1074" transform="rotate(-90.1237 32.1776 79.9771)" fill="#79DCEE"/>
<ellipse cx="33.1388" cy="525.334" rx="32.5262" ry="31.1074" transform="rotate(-90.1237 33.1388 525.334)" fill="#79DCEE"/>
</svg>
