<svg width="286" height="1063" viewBox="0 0 286 1063" fill="none" xmlns="http://www.w3.org/2000/svg">
<path d="M142.5 852L1 1062.5H71.5L142.5 961L212 1062.5H284.5L142.5 852Z" fill="#8D3C24" stroke="#8D3C24"/>
<path d="M142.5 641L1 851.5H71.5L142.5 750L212 851.5H284.5L142.5 641Z" fill="#8D3C24" stroke="#8D3C24"/>
<path d="M142.5 422L1 632.5H71.5L142.5 531L212 632.5H284.5L142.5 422Z" fill="#8D3C24" stroke="#8D3C24"/>
<path d="M142.5 211L1 421.5H71.5L142.5 320L212 421.5H284.5L142.5 211Z" fill="#8D3C24" stroke="#8D3C24"/>
<path d="M142.5 1L1 211.5H71.5L142.5 110L212 211.5H284.5L142.5 1Z" fill="#8D3C24" stroke="#8D3C24"/>
</svg>
