<svg width="329" height="1077" viewBox="0 0 329 1077" fill="none" xmlns="http://www.w3.org/2000/svg">
<path d="M164.5 852.413L306.961 1064.35H22.0388L164.5 852.413Z" fill="#8D3C24"/>
<path d="M164.03 960.738L235.261 1066.71H92.7994L164.03 960.738Z" fill="#E2E9F5"/>
<path d="M164.5 641.414L306.961 853.355H22.0388L164.5 641.414Z" fill="#8D3C24"/>
<path d="M164.03 749.739L235.261 855.709H92.7994L164.03 749.739Z" fill="#E2E9F5"/>
<path d="M164.5 426.648L306.961 638.588H22.0388L164.5 426.648Z" fill="#8D3C24"/>
<path d="M164.03 534.973L235.261 640.943H92.7994L164.03 534.973Z" fill="#E2E9F5"/>
<path d="M164.5 210.939L306.961 422.88H22.0388L164.5 210.939Z" fill="#8D3C24"/>
<path d="M164.03 319.264L235.261 425.235H92.7994L164.03 319.264Z" fill="#E2E9F5"/>
<path d="M164.5 0.882538L306.961 212.823H22.0388L164.5 0.882538Z" fill="#8D3C24"/>
<path d="M164.03 109.208L235.261 215.178H92.7994L164.03 109.208Z" fill="#E2E9F5"/>
</svg>
