<svg width="125" height="125" viewBox="0 0 125 125" fill="none" xmlns="http://www.w3.org/2000/svg">
<g clip-path="url(#clip0_28_373)">
<path d="M16.6989 4.17627H41.7692C43.2439 4.1672 44.671 4.71534 45.7751 5.71631C46.8753 6.7138 47.5765 8.09117 47.7429 9.58545H47.7439C48.3708 18.0194 50.4651 26.2706 53.9265 33.9546L54.2653 34.6968C54.836 36.066 54.8962 37.6012 54.4343 39.0132C53.9706 40.4301 53.0138 41.6229 51.7478 42.3667L46.1843 45.5952C45.3192 46.0799 44.566 46.7461 43.9733 47.5483C43.3807 48.3506 42.9619 49.2714 42.7448 50.2495C42.5278 51.2276 42.5175 52.2415 42.7136 53.2241C42.8851 54.0839 43.2111 54.9037 43.6755 55.6411L43.8835 55.9526C50.3219 65.557 58.4658 73.8513 67.8952 80.4106V80.4116C68.6965 80.9985 69.6114 81.4064 70.5798 81.6069C71.5482 81.8074 72.5476 81.7956 73.5114 81.5737C74.4752 81.3518 75.3812 80.9243 76.1696 80.3198C76.9562 79.7168 77.6072 78.9514 78.0817 78.0747L78.0827 78.0757L81.2497 72.4116C82.0253 71.1011 83.255 70.1384 84.6921 69.7104C86.0394 69.3093 87.4794 69.4047 88.7605 69.9761L89.0144 70.0972L89.0222 70.1011C96.7708 73.8332 105.126 76.0853 113.674 76.7456C115.136 76.9128 116.488 77.6255 117.469 78.7485C118.391 79.8039 118.925 81.1514 118.98 82.5601L118.985 82.8423V108.773H118.984L118.985 108.778C119.004 110.613 118.633 112.431 117.896 114.106C117.16 115.78 116.076 117.271 114.72 118.477C113.365 119.683 111.77 120.575 110.045 121.092C108.428 121.577 106.732 121.721 105.061 121.518L104.727 121.473L104.718 121.472L103.521 121.309C78.423 117.754 55.1422 105.927 37.2468 87.6157C19.067 69.0135 7.47811 44.7767 4.30928 18.7241H4.31026L4.3083 18.7134L4.26436 18.3735C4.06544 16.6723 4.20604 14.9465 4.6794 13.3003C5.18432 11.5443 6.05582 9.92058 7.23311 8.54053C8.41029 7.16068 9.86521 6.05616 11.4987 5.30322C13.0303 4.59732 14.6853 4.21582 16.363 4.1792L16.6989 4.17627Z" stroke="#E826C8"/>
<path d="M119.485 43.2607C119.485 32.7622 115.39 22.6938 108.103 15.2703C100.815 7.84676 90.9314 3.67627 80.6253 3.67627" stroke="#E826C8" stroke-width="7" stroke-linecap="round" stroke-linejoin="round"/>
<path d="M80.6253 30.0669C84.0607 30.0669 87.3553 31.4571 89.7845 33.9316C92.2137 36.4061 93.5784 39.7622 93.5784 43.2617" stroke="#E826C8" stroke-width="7" stroke-linecap="round" stroke-linejoin="round"/>
<path d="M119.485 82.8452V108.773C119.504 110.679 119.118 112.567 118.353 114.307C117.588 116.047 116.462 117.597 115.053 118.851C113.643 120.105 111.984 121.033 110.189 121.571C108.393 122.109 106.505 122.244 104.653 121.968C78.9864 118.609 55.1462 106.647 36.8889 87.9651C18.6317 69.2836 6.99535 44.9451 3.81339 18.7845C3.54281 16.9039 3.67427 14.986 4.19878 13.1619C4.72328 11.3379 5.62845 9.65082 6.85233 8.21615C8.07621 6.78148 9.58993 5.63309 11.2899 4.84957C12.9898 4.06605 14.8359 3.66589 16.7017 3.67647H41.766C43.3671 3.66658 44.915 4.26118 46.111 5.34551C47.3071 6.42985 48.0664 7.92705 48.2425 9.54816C48.8852 18.1945 51.0804 26.6473 54.7191 34.4863C55.343 35.9709 55.4107 37.6371 54.9094 39.1691C54.4081 40.7012 53.3725 41.9927 51.9989 42.799L46.4291 46.0318C45.6263 46.4816 44.9262 47.0998 44.3753 47.8455C43.8244 48.5913 43.435 49.4476 43.233 50.358C43.031 51.2684 43.0209 52.2121 43.2035 53.1267C43.386 54.0414 43.7569 54.9062 44.2918 55.664C50.6993 65.2248 58.8046 73.4814 68.1903 80.0084C68.9342 80.5532 69.7832 80.9311 70.681 81.117C71.5789 81.303 72.5053 81.2927 73.399 81.0869C74.2927 80.8812 75.1334 80.4846 75.8655 79.9233C76.5976 79.3621 77.2045 78.649 77.6461 77.8312L80.8196 72.1575C81.6584 70.7399 82.9897 69.6953 84.5493 69.2309C86.1088 68.7665 87.7828 68.9163 89.2391 69.6504C96.9345 73.357 105.232 75.5932 113.72 76.2478C115.312 76.4272 116.782 77.2007 117.846 78.4191C118.911 79.6374 119.494 81.2143 119.485 82.8452Z" stroke="#E826C8" stroke-width="7" stroke-linecap="round" stroke-linejoin="round"/>
</g>
<defs>
<clipPath id="clip0_28_373">
<rect width="125" height="125" fill="white"/>
</clipPath>
</defs>
</svg>
