<svg width="260" height="260" viewBox="0 0 260 260" fill="none" xmlns="http://www.w3.org/2000/svg">
<circle cx="130" cy="130" r="127.5" fill="#E2E9F5" stroke="#D8B093" stroke-width="5"/>
<circle cx="130" cy="130" r="108.5" fill="#E2E9F5" stroke="#D8B093" stroke-width="3"/>
<path d="M129.498 52C94.9819 52 67 75.7937 67 105.138C67 134.487 94.9819 158.277 129.498 158.277C164.016 158.277 192 134.487 192 105.138C192 75.7937 164.016 52 129.498 52ZM129.498 115.352C114.705 115.352 102.714 107.659 102.714 98.1677C102.714 88.678 114.705 80.9856 129.498 80.9856C144.291 80.9856 156.283 88.6777 156.283 98.1677C156.283 107.659 144.291 115.352 129.498 115.352Z" fill="#58C7DB"/>
<path d="M129.498 53.5C163.425 53.5 190.5 76.8414 190.5 105.139C190.5 110.508 189.514 115.681 187.713 120.553C186.665 120.67 185.581 121.059 184.521 121.681C182.638 122.781 180.976 124.453 179.778 126.281C178.664 127.982 177.875 129.937 177.771 131.821L177.76 132.197V133.479C177.766 134.556 177.238 135.922 176.202 137.229C175.244 138.437 173.95 139.466 172.555 140.057L172.274 140.168L172.271 140.17C170.746 140.751 169.604 140.654 168.948 140.336C168.412 140.076 168.041 139.602 168.019 138.787V138.611L168.02 138.603C168.042 137.361 168.057 136.118 168.063 134.878V134.858C168.047 132.751 167.055 131.033 165.395 130.073C163.884 129.2 161.981 129.041 160.051 129.527L159.665 129.633L159.661 129.634C157.613 130.245 155.767 131.489 154.412 133.022C153.066 134.547 152.114 136.467 152.055 138.47V138.488C152.033 139.747 152.002 141.005 151.961 142.264V142.28C151.942 143.183 151.431 144.247 150.402 145.192C149.451 146.067 148.154 146.742 146.729 147.001L146.443 147.047H146.44C144.901 147.267 143.649 146.949 142.845 146.414C142.114 145.927 141.741 145.27 141.729 144.527L141.73 144.377L141.731 144.363C141.781 143.05 141.83 141.739 141.874 140.428V140.408C141.961 136.313 138.28 133.688 134.264 133.688L133.874 133.696H133.871C129.884 133.873 126.084 136.574 125.663 140.424L125.633 140.8V140.813C125.553 142.725 125.465 144.643 125.376 146.556V146.565L125.375 146.574C125.349 147.325 124.908 148.11 123.973 148.726C123.096 149.303 121.855 149.669 120.438 149.612L120.151 149.596H120.148C118.615 149.476 117.297 148.889 116.403 148.109C115.559 147.372 115.171 146.545 115.161 145.809L115.165 145.662V145.651C115.285 143.193 115.411 140.736 115.548 138.281V138.273L115.549 138.266C115.727 134.356 112.491 130.938 108.608 129.969L108.231 129.883H108.229C104.114 129.037 99.9594 131.197 99.6172 135.494V135.504L99.6162 135.513L99.4551 137.951L99.4541 137.96C99.4038 138.864 98.9419 139.526 98.1826 139.917C97.4368 140.3 96.3216 140.451 94.9727 140.091L94.7002 140.012L94.6973 140.011L94.4258 139.921C93.0802 139.442 91.8849 138.549 91.04 137.481C90.1852 136.401 89.7741 135.256 89.7969 134.295L89.8066 134.105L89.8076 134.095L89.9033 132.866L89.9043 132.854C90.0459 130.864 89.333 128.824 88.2002 127.112C87.1318 125.498 85.62 124.065 83.8584 123.135L83.5029 122.956L83.501 122.955L83.1396 122.791C81.3301 122.015 79.4507 121.88 77.8594 122.555C76.1018 123.3 74.9776 124.916 74.752 127.001V127.008L74.751 127.016C74.7262 127.269 74.7028 127.522 74.6787 127.775C70.7212 120.93 68.5 113.253 68.5 105.139C68.5 76.8414 95.5729 53.5001 129.498 53.5ZM129.498 79.4854C121.858 79.4854 114.872 81.4696 109.749 84.7559C104.642 88.0317 101.214 92.7382 101.214 98.168C101.214 103.598 104.642 108.305 109.749 111.581C114.872 114.868 121.858 116.852 129.498 116.852C137.138 116.852 144.125 114.868 149.248 111.581C154.355 108.305 157.783 103.598 157.783 98.168C157.783 92.7381 154.355 88.0307 149.248 84.7549C144.125 81.4686 137.138 79.4854 129.498 79.4854Z" fill="#E2E9F5" stroke="#58C7DB" stroke-width="3"/>
<path d="M126.858 74.6016C103.555 77.4441 102.987 89.6101 102.806 96.9912C103.755 88.0503 115.326 80.9858 129.498 80.9858C144.291 80.9858 156.283 88.678 156.283 98.168C156.283 98.168 152.362 71.4927 126.858 74.6016Z" fill="#58C7DB"/>
<path d="M102.791 99.1409C102.791 99.2539 102.791 99.3718 102.791 99.4795H102.814C102.802 99.3667 102.801 99.2537 102.791 99.1409Z" fill="#58C7DB"/>
<g opacity="0.2">
<path d="M80.1249 97.8026C79.0065 97.8026 77.8742 97.4982 76.8585 96.8571C73.9957 95.0509 73.1405 91.2648 74.9464 88.402C84.2294 73.6925 100.343 63.0228 119.154 59.1254C122.465 58.4499 125.715 60.5705 126.401 63.8849C127.086 67.1991 124.955 70.4433 121.641 71.131C106.07 74.3546 92.83 83.0355 85.3136 94.9452C84.1474 96.7919 82.1583 97.8026 80.1249 97.8026Z" fill="#58C7DB"/>
</g>
<path d="M75.8398 193.918H71.4922V191.176H75.8398C76.5117 191.176 77.0586 191.066 77.4805 190.848C77.9023 190.621 78.2109 190.309 78.4062 189.91C78.6016 189.512 78.6992 189.062 78.6992 188.562C78.6992 188.055 78.6016 187.582 78.4062 187.145C78.2109 186.707 77.9023 186.355 77.4805 186.09C77.0586 185.824 76.5117 185.691 75.8398 185.691H72.7109V200H69.1953V182.938H75.8398C77.1758 182.938 78.3203 183.18 79.2734 183.664C80.2344 184.141 80.9688 184.801 81.4766 185.645C81.9844 186.488 82.2383 187.453 82.2383 188.539C82.2383 189.641 81.9844 190.594 81.4766 191.398C80.9688 192.203 80.2344 192.824 79.2734 193.262C78.3203 193.699 77.1758 193.918 75.8398 193.918ZM84.6641 182.938H91.0273C92.332 182.938 93.4531 183.133 94.3906 183.523C95.3359 183.914 96.0625 184.492 96.5703 185.258C97.0781 186.023 97.332 186.965 97.332 188.082C97.332 188.996 97.1758 189.781 96.8633 190.438C96.5586 191.086 96.125 191.629 95.5625 192.066C95.0078 192.496 94.3555 192.84 93.6055 193.098L92.4922 193.684H86.9609L86.9375 190.941H91.0508C91.668 190.941 92.1797 190.832 92.5859 190.613C92.9922 190.395 93.2969 190.09 93.5 189.699C93.7109 189.309 93.8164 188.855 93.8164 188.34C93.8164 187.793 93.7148 187.32 93.5117 186.922C93.3086 186.523 93 186.219 92.5859 186.008C92.1719 185.797 91.6523 185.691 91.0273 185.691H88.1797V200H84.6641V182.938ZM94.2031 200L90.3125 192.395L94.0273 192.371L97.9648 199.836V200H94.2031ZM114.055 191.07V191.879C114.055 193.176 113.879 194.34 113.527 195.371C113.176 196.402 112.68 197.281 112.039 198.008C111.398 198.727 110.633 199.277 109.742 199.66C108.859 200.043 107.879 200.234 106.801 200.234C105.73 200.234 104.75 200.043 103.859 199.66C102.977 199.277 102.211 198.727 101.562 198.008C100.914 197.281 100.41 196.402 100.051 195.371C99.6992 194.34 99.5234 193.176 99.5234 191.879V191.07C99.5234 189.766 99.6992 188.602 100.051 187.578C100.402 186.547 100.898 185.668 101.539 184.941C102.188 184.215 102.953 183.66 103.836 183.277C104.727 182.895 105.707 182.703 106.777 182.703C107.855 182.703 108.836 182.895 109.719 183.277C110.609 183.66 111.375 184.215 112.016 184.941C112.664 185.668 113.164 186.547 113.516 187.578C113.875 188.602 114.055 189.766 114.055 191.07ZM110.504 191.879V191.047C110.504 190.141 110.422 189.344 110.258 188.656C110.094 187.969 109.852 187.391 109.531 186.922C109.211 186.453 108.82 186.102 108.359 185.867C107.898 185.625 107.371 185.504 106.777 185.504C106.184 185.504 105.656 185.625 105.195 185.867C104.742 186.102 104.355 186.453 104.035 186.922C103.723 187.391 103.484 187.969 103.32 188.656C103.156 189.344 103.074 190.141 103.074 191.047V191.879C103.074 192.777 103.156 193.574 103.32 194.27C103.484 194.957 103.727 195.539 104.047 196.016C104.367 196.484 104.758 196.84 105.219 197.082C105.68 197.324 106.207 197.445 106.801 197.445C107.395 197.445 107.922 197.324 108.383 197.082C108.844 196.84 109.23 196.484 109.543 196.016C109.855 195.539 110.094 194.957 110.258 194.27C110.422 193.574 110.504 192.777 110.504 191.879ZM121.824 200H118.109L118.133 197.258H121.824C122.746 197.258 123.523 197.051 124.156 196.637C124.789 196.215 125.266 195.602 125.586 194.797C125.914 193.992 126.078 193.02 126.078 191.879V191.047C126.078 190.172 125.984 189.402 125.797 188.738C125.617 188.074 125.348 187.516 124.988 187.062C124.629 186.609 124.188 186.27 123.664 186.043C123.141 185.809 122.539 185.691 121.859 185.691H118.039V182.938H121.859C123 182.938 124.043 183.133 124.988 183.523C125.941 183.906 126.766 184.457 127.461 185.176C128.156 185.895 128.691 186.754 129.066 187.754C129.449 188.746 129.641 189.852 129.641 191.07V191.879C129.641 193.09 129.449 194.195 129.066 195.195C128.691 196.195 128.156 197.055 127.461 197.773C126.773 198.484 125.949 199.035 124.988 199.426C124.035 199.809 122.98 200 121.824 200ZM120.102 182.938V200H116.586V182.938H120.102ZM141.617 182.938H145.121V194.211C145.121 195.523 144.84 196.629 144.277 197.527C143.723 198.426 142.953 199.102 141.969 199.555C140.992 200.008 139.867 200.234 138.594 200.234C137.32 200.234 136.188 200.008 135.195 199.555C134.211 199.102 133.438 198.426 132.875 197.527C132.32 196.629 132.043 195.523 132.043 194.211V182.938H135.559V194.211C135.559 194.977 135.68 195.602 135.922 196.086C136.164 196.57 136.512 196.926 136.965 197.152C137.426 197.379 137.969 197.492 138.594 197.492C139.234 197.492 139.777 197.379 140.223 197.152C140.676 196.926 141.02 196.57 141.254 196.086C141.496 195.602 141.617 194.977 141.617 194.211V182.938ZM157.906 194.34H161.41C161.34 195.488 161.023 196.508 160.461 197.398C159.906 198.289 159.129 198.984 158.129 199.484C157.137 199.984 155.941 200.234 154.543 200.234C153.449 200.234 152.469 200.047 151.602 199.672C150.734 199.289 149.992 198.742 149.375 198.031C148.766 197.32 148.301 196.461 147.98 195.453C147.66 194.445 147.5 193.316 147.5 192.066V190.883C147.5 189.633 147.664 188.504 147.992 187.496C148.328 186.48 148.805 185.617 149.422 184.906C150.047 184.195 150.793 183.648 151.66 183.266C152.527 182.883 153.496 182.691 154.566 182.691C155.988 182.691 157.188 182.949 158.164 183.465C159.148 183.98 159.91 184.691 160.449 185.598C160.996 186.504 161.324 187.535 161.434 188.691H157.918C157.879 188.004 157.742 187.422 157.508 186.945C157.273 186.461 156.918 186.098 156.441 185.855C155.973 185.605 155.348 185.48 154.566 185.48C153.98 185.48 153.469 185.59 153.031 185.809C152.594 186.027 152.227 186.359 151.93 186.805C151.633 187.25 151.41 187.812 151.262 188.492C151.121 189.164 151.051 189.953 151.051 190.859V192.066C151.051 192.949 151.117 193.727 151.25 194.398C151.383 195.062 151.586 195.625 151.859 196.086C152.141 196.539 152.5 196.883 152.938 197.117C153.383 197.344 153.918 197.457 154.543 197.457C155.277 197.457 155.883 197.34 156.359 197.105C156.836 196.871 157.199 196.523 157.449 196.062C157.707 195.602 157.859 195.027 157.906 194.34ZM170.996 182.938V200H167.492V182.938H170.996ZM176.246 182.938V185.691H162.324V182.938H176.246ZM186.945 195.535C186.945 195.23 186.898 194.957 186.805 194.715C186.719 194.465 186.555 194.238 186.312 194.035C186.07 193.824 185.73 193.617 185.293 193.414C184.855 193.211 184.289 193 183.594 192.781C182.82 192.531 182.086 192.25 181.391 191.938C180.703 191.625 180.094 191.262 179.562 190.848C179.039 190.426 178.625 189.938 178.32 189.383C178.023 188.828 177.875 188.184 177.875 187.449C177.875 186.738 178.031 186.094 178.344 185.516C178.656 184.93 179.094 184.43 179.656 184.016C180.219 183.594 180.883 183.27 181.648 183.043C182.422 182.816 183.27 182.703 184.191 182.703C185.449 182.703 186.547 182.93 187.484 183.383C188.422 183.836 189.148 184.457 189.664 185.246C190.188 186.035 190.449 186.938 190.449 187.953H186.957C186.957 187.453 186.852 187.016 186.641 186.641C186.438 186.258 186.125 185.957 185.703 185.738C185.289 185.52 184.766 185.41 184.133 185.41C183.523 185.41 183.016 185.504 182.609 185.691C182.203 185.871 181.898 186.117 181.695 186.43C181.492 186.734 181.391 187.078 181.391 187.461C181.391 187.75 181.461 188.012 181.602 188.246C181.75 188.48 181.969 188.699 182.258 188.902C182.547 189.105 182.902 189.297 183.324 189.477C183.746 189.656 184.234 189.832 184.789 190.004C185.719 190.285 186.535 190.602 187.238 190.953C187.949 191.305 188.543 191.699 189.02 192.137C189.496 192.574 189.855 193.07 190.098 193.625C190.34 194.18 190.461 194.809 190.461 195.512C190.461 196.254 190.316 196.918 190.027 197.504C189.738 198.09 189.32 198.586 188.773 198.992C188.227 199.398 187.574 199.707 186.816 199.918C186.059 200.129 185.211 200.234 184.273 200.234C183.43 200.234 182.598 200.125 181.777 199.906C180.957 199.68 180.211 199.34 179.539 198.887C178.875 198.434 178.344 197.855 177.945 197.152C177.547 196.449 177.348 195.617 177.348 194.656H180.875C180.875 195.188 180.957 195.637 181.121 196.004C181.285 196.371 181.516 196.668 181.812 196.895C182.117 197.121 182.477 197.285 182.891 197.387C183.312 197.488 183.773 197.539 184.273 197.539C184.883 197.539 185.383 197.453 185.773 197.281C186.172 197.109 186.465 196.871 186.652 196.566C186.848 196.262 186.945 195.918 186.945 195.535Z" fill="#58C7DB"/>
</svg>
