<svg width="105" height="101" viewBox="0 0 105 101" fill="none" xmlns="http://www.w3.org/2000/svg">
<path d="M83.1686 48.6063L50.5312 80.0005C48.5187 81.9363 48.5187 85.0084 50.5312 86.9442C51.4828 87.8591 52.7732 88.373 54.1187 88.373C55.4641 88.373 56.7545 87.8591 57.7062 86.9442L90.3436 55.55C92.3561 53.6142 92.3561 50.5421 90.3436 48.6063C88.3311 46.6705 85.1374 46.6705 83.1249 48.6063H83.1686ZM83.8686 14.0559C81.8561 12.12 78.6624 12.12 76.6499 14.0559L14.6124 73.7301C12.5999 75.6659 12.5999 78.738 14.6124 80.6738C15.5641 81.5887 16.8545 82.1026 18.1999 82.1026C19.5454 82.1026 20.8357 81.5887 21.7874 80.6738L83.8249 20.9996C85.8374 19.0638 85.8374 15.9917 83.8249 14.0559H83.8686Z" fill="black"/>
</svg>
